<?xml version="1.0" encoding="UTF-8"?><svg id="Layer_2" xmlns="http://www.w3.org/2000/svg" viewBox="0 0 342.21007 269.04092"><g id="_3._korrus"><rect x="287.42819" y="118.73152" width="13.03942" height="28.34646" transform="translate(426.85265 -161.04316) rotate(90)" fill="none" stroke="#566956" stroke-linecap="square" stroke-miterlimit="10" stroke-width=".6"/><path d="M293.39579,136.73152h-5.09916c-.78277,0-1.41732-.63456-1.41732-1.41732v-6.31181c0-.78277.63456-1.41732,1.41732-1.41732h11.33858c.78277,0,1.41732.63456,1.41732,1.41732v6.31181c0,.78277-.63456,1.41732-1.41732,1.41732h-5.11563" fill="none" stroke="#566956" stroke-linecap="square" stroke-miterlimit="10" stroke-width=".6"/><path d="M293.44785,134.43498c0-.27612.22386-.49998.50002-.49998.27612,0,.49998.22386.49998.49998v3.28946c0,.27612-.22386.49998-.50002.49998-.27612,0-.49998-.22386-.49998-.49998v-3.2894s0-.00006,0-.00006Z" fill="none" stroke="#566956" stroke-linecap="square" stroke-miterlimit="10" stroke-width=".6"/><g id="HATCH"><rect x="100.42661" y="190.13618" width="125.26299" height="77.3008" fill="none" stroke="#dde1dd" stroke-miterlimit="10" stroke-width=".6"/><path d="M100.42661,191.47386h125.26299M209.39696,195.57228h16.29265M100.42661,195.57228h103.57401M214.8686,199.6707h10.821M100.42661,199.6707h99.63138M217.89644,203.76913h7.79316M100.42661,203.76913h99.49217M219.24252,207.86755h6.44708M100.42661,207.86755h98.86048M213.4821,211.96597h12.20751M100.42661,211.96597h99.55999M100.42661,216.06439h125.26299M134.35535,220.16281h91.33425M100.42661,220.16281h24.36468M135.23418,224.26124h90.45543M100.42661,224.26124h23.78124M140.41578,228.35966h85.27382M100.42661,228.35966h17.23946M151.76606,232.45808h73.92355M100.42661,232.45808h6.07621M152.77238,236.5565h72.91722M100.42661,236.5565h4.78994M153.284,240.65493h72.40561M100.42661,240.65493h10.2858M145.67752,244.75335h80.01208M100.42661,244.75335h12.05014M144.18677,248.85177h81.50283M100.42661,248.85177h13.61408M145.24263,252.95019h80.44697M100.42661,252.95019h12.49344M147.43775,257.04862h78.25185M100.42661,257.04862h10.54922M142.38615,261.14704h83.30345M119.49477,261.14704h18.90894M100.42661,261.14704h15.20111M100.42661,265.24546h125.26299" fill="none" stroke="#dde1dd" stroke-miterlimit="10" stroke-width=".6"/></g><polygon points="198.94363 203.69276 199.91878 203.76227 198.69208 204.33261 200.62418 204.72268 199.39893 205.25334 198.99643 205.60771 197.70625 205.58482 200.67793 206.67618 199.46845 207.087 197.74762 207.70038 200.09984 207.73766 198.53696 208.39632 196.97064 209.06509 200.80524 208.56299 198.86832 209.45862 200.01783 209.44132 197.77432 211.02266 200.67125 210.23107 198.63498 211.97715 200.81057 210.74687 199.56916 212.5836 201.29176 211.20398 200.30012 212.78926 199.79419 214.30707 204.02135 209.66788 202.45856 211.77058 201.36713 214.24574 202.72507 212.38602 202.61328 213.57834 202.36704 215.50849 203.39828 213.41819 203.25222 215.00646 204.50979 212.15885 204.58988 213.27274 204.38244 214.55717 204.75981 215.6431 205.36038 212.577 205.7141 213.29879 206.84515 215.91324 206.85139 212.23713 207.15088 212.80819 207.85376 215.46884 208.32757 213.5537 207.63605 211.80333 208.69335 212.20654 209.77802 213.75716 209.5829 212.49777 210.04259 213.16842 210.91529 212.72435 211.0943 211.91403 211.29891 213.36108 211.83506 211.8958 211.8881 210.82277 212.39291 212.32011 212.7992 210.81866 213.66695 212.27654 214.09711 210.71236 214.45543 212.92525 214.74863 211.40438 214.26326 210.23784 214.33025 209.71098 216.53639 212.28861 216.2357 210.93491 216.1413 210.01165 217.0397 210.52624 217.95402 211.26282 217.62086 209.90443 218.46826 210.48628 217.49375 209.15914 216.30322 208.59346 216.45346 208.24603 218.48576 209.2294 218.02407 208.23917 218.54268 208.22637 219.64108 207.83587 218.178 207.52848 216.50769 207.10458 218.02095 206.9892 218.6931 206.5242 216.70769 206.30057 219.76159 205.95797 218.20387 205.60734 216.97606 205.72714 218.46027 204.95393 219.61148 204.56375 217.51677 204.49516 216.58021 204.61269 216.85057 204.2278 217.89644 203.75758 218.90572 202.88013 216.76797 203.94059 217.39533 202.53157 218.24806 201.47435 215.9169 203.03692 216.24292 202.07662 216.61233 200.51932 215.77363 201.07552 215.1779 201.14232 214.8686 199.75383 215.06691 199.34404 213.83746 200.78738 214.39652 199.67051 213.44199 199.52547 214.69656 198.62823 212.04206 199.20401 211.8045 198.83772 214.32484 196.67928 211.76665 198.06395 213.01928 196.54422 212.05918 196.91686 213.18269 195.18918 211.92468 196.01171 212.54824 194.58985 210.68806 196.50645 211.48271 194.58298 209.03493 197.35822 210.02121 193.48351 209.08532 195.23013 208.52226 194.2612 207.44976 198.28241 207.11827 192.93237 206.90332 195.34983 206.05958 193.98339 205.87962 194.73701 205.12984 193.53509 205.02266 196.68429 203.06718 194.27681 203.94928 197.32485 202.84043 195.71263 200.67321 194.85975 202.28696 196.82965 200.2625 196.57264 201.5991 197.81176 200.27341 197.32799 201.84863 198.9756 199.11807 197.92368 200.42082 199.15475 197.73774 198.39165 200.33289 199.76538 201.05612 200.26542 199.29149 200.41832 201.54072 201.37768 197.34669 201.87797 200.17861 202.28635 200.49075 203.16971 198.94363 203.69276" fill="none" stroke="#aab4aa" stroke-linecap="round" stroke-miterlimit="10" stroke-width=".6"/><g id="LWPOLYLINE"><rect x="298.22816" y="91.85906" width="20.21102" height=".56693" fill="none" stroke="#95c2d6" stroke-linecap="square" stroke-miterlimit="10" stroke-width=".6"/></g><g id="LWPOLYLINE-2"><rect x="276.96831" y="91.85906" width="4.25197" height=".56693" fill="none" stroke="#95c2d6" stroke-linecap="square" stroke-miterlimit="10" stroke-width=".6"/></g><g id="LWPOLYLINE-3"><rect x="278.92998" y="85.76284" width="17.00787" height=".56693" transform="translate(23.34352 228.44885) rotate(-45)" fill="none" stroke="#95c2d6" stroke-linecap="square" stroke-miterlimit="10" stroke-width=".6"/></g><path d="M293.24667,79.83267c3.07782,3.07782,4.98149,7.32979,4.98149,12.02638" fill="none" stroke="#95c2d6" stroke-linecap="square" stroke-miterlimit="10" stroke-width=".6"/><g id="LINE"><polygon points="225.68923 267.43698 100.4266 267.43698 100.4266 190.13645 99.12266 190.13645 99.12266 268.74091 100.4266 268.74091 100.4266 268.74091 225.68923 268.74091 225.68923 267.43698" fill="none" stroke="#95c2d6" stroke-linecap="square" stroke-miterlimit="10" stroke-width=".6"/></g><g id="LWPOLYLINE-4"><path d="M336.24077,30.06375h-25.90866c0,14.30896,11.5997,25.90866,25.90866,25.90866" fill="none" stroke="#566956" stroke-linecap="square" stroke-miterlimit="10" stroke-width=".6"/></g><g id="LWPOLYLINE-5"><rect x="336.24077" y="28.84485" width="2.83465" height="1.2189" fill="#566956" stroke="#566956" stroke-linecap="square" stroke-miterlimit="10" stroke-width=".6"/></g><g id="LWPOLYLINE-6"><rect x="336.24077" y="55.97241" width="2.83465" height="1.2189" fill="#566956" stroke="#566956" stroke-linecap="square" stroke-miterlimit="10" stroke-width=".6"/></g><g id="LWPOLYLINE-7"><path d="M245.33369,142.37241l16.31579,16.31579c4.50548-4.50548,6.75822-10.41063,6.75822-16.31578" fill="none" stroke="#566956" stroke-linecap="square" stroke-miterlimit="10" stroke-width=".6"/></g><g id="LWPOLYLINE-8"><rect x="244.11479" y="139.76457" width="1.2189" height="2.60784" fill="#566956" stroke="#566956" stroke-linecap="square" stroke-miterlimit="10" stroke-width=".6"/></g><g id="LWPOLYLINE-9"><rect x="268.4077" y="139.76457" width="1.2189" height="2.60784" fill="#566956" stroke="#566956" stroke-linecap="square" stroke-miterlimit="10" stroke-width=".6"/></g><g id="LWPOLYLINE-10"><path d="M237.31162,85.90627l-16.31579,16.31579c4.50548,4.50548,10.41063,6.75822,16.31578,6.75822" fill="none" stroke="#566956" stroke-linecap="square" stroke-miterlimit="10" stroke-width=".6"/></g><g id="LWPOLYLINE-11"><rect x="237.31162" y="84.68737" width="2.60787" height="1.2189" fill="#566956" stroke="#566956" stroke-linecap="square" stroke-miterlimit="10" stroke-width=".6"/></g><g id="LWPOLYLINE-12"><rect x="237.31162" y="108.98028" width="2.60787" height="1.2189" fill="#566956" stroke="#566956" stroke-linecap="square" stroke-miterlimit="10" stroke-width=".6"/></g><g id="LWPOLYLINE-13"><path d="M273.93524,116.35039l-14.3114-14.3114c3.95198-3.95198,9.13168-5.92797,14.31139-5.92797" fill="none" stroke="#566956" stroke-linecap="square" stroke-miterlimit="10" stroke-width=".6"/></g><g id="LWPOLYLINE-14"><rect x="273.93524" y="116.35039" width="2.60787" height="1.2189" fill="#566956" stroke="#566956" stroke-linecap="square" stroke-miterlimit="10" stroke-width=".6"/></g><g id="LWPOLYLINE-15"><rect x="273.93524" y="94.89213" width="2.60787" height="1.2189" fill="#566956" stroke="#566956" stroke-linecap="square" stroke-miterlimit="10" stroke-width=".6"/></g><g id="LWPOLYLINE-16"><rect x="23.01243" y="183.61654" width="25.51181" height="1.13386" fill="none" stroke="#566956" stroke-linecap="square" stroke-miterlimit="10" stroke-width=".6"/></g><g id="LWPOLYLINE-17"><rect x="21.5951" y="182.62441" width="1.41732" height="2.83465" fill="#566956" stroke="#566956" stroke-linecap="square" stroke-miterlimit="10" stroke-width=".6"/></g><g id="LWPOLYLINE-18"><rect x="48.52424" y="182.62441" width="1.41732" height="2.83465" fill="#566956" stroke="#566956" stroke-linecap="square" stroke-miterlimit="10" stroke-width=".6"/></g><g id="LWPOLYLINE-19"><rect x="5.57925" y="56.05745" width="1.13386" height="25.51181" fill="none" stroke="#566956" stroke-linecap="square" stroke-miterlimit="10" stroke-width=".6"/></g><g id="LWPOLYLINE-20"><rect x="4.87059" y="54.64013" width="2.83465" height="1.41732" fill="#566956" stroke="#566956" stroke-linecap="square" stroke-miterlimit="10" stroke-width=".6"/></g><g id="LWPOLYLINE-21"><rect x="4.87059" y="81.56926" width="2.83465" height="1.41732" fill="#566956" stroke="#566956" stroke-linecap="square" stroke-miterlimit="10" stroke-width=".6"/></g><g id="LWPOLYLINE-22"><rect x="5.57925" y="141.09682" width="1.13386" height="25.51181" fill="none" stroke="#566956" stroke-linecap="square" stroke-miterlimit="10" stroke-width=".6"/></g><g id="LWPOLYLINE-23"><rect x="4.87059" y="139.6795" width="2.83465" height="1.41732" fill="#566956" stroke="#566956" stroke-linecap="square" stroke-miterlimit="10" stroke-width=".6"/></g><g id="LWPOLYLINE-24"><rect x="4.87059" y="166.60863" width="2.83465" height="1.41732" fill="#566956" stroke="#566956" stroke-linecap="square" stroke-miterlimit="10" stroke-width=".6"/></g><g id="LWPOLYLINE-25"><rect x="65.53211" y="183.61654" width="25.51181" height="1.13386" fill="none" stroke="#566956" stroke-linecap="square" stroke-miterlimit="10" stroke-width=".6"/></g><g id="LWPOLYLINE-26"><rect x="64.11479" y="182.62441" width="1.41732" height="2.83465" fill="#566956" stroke="#566956" stroke-linecap="square" stroke-miterlimit="10" stroke-width=".6"/></g><g id="LWPOLYLINE-27"><rect x="91.04392" y="182.62441" width="1.41732" height="2.83465" fill="#566956" stroke="#566956" stroke-linecap="square" stroke-miterlimit="10" stroke-width=".6"/></g><g id="LWPOLYLINE-28"><rect x="150.57148" y="183.61654" width="25.51181" height="1.13386" fill="none" stroke="#566956" stroke-linecap="square" stroke-miterlimit="10" stroke-width=".6"/></g><g id="LWPOLYLINE-29"><rect x="149.15416" y="182.62441" width="1.41732" height="2.83465" fill="#566956" stroke="#566956" stroke-linecap="square" stroke-miterlimit="10" stroke-width=".6"/></g><g id="LWPOLYLINE-30"><rect x="176.08329" y="182.62441" width="1.41732" height="2.83465" fill="#566956" stroke="#566956" stroke-linecap="square" stroke-miterlimit="10" stroke-width=".6"/></g><g id="LWPOLYLINE-31"><rect x="108.0518" y="183.9" width="1.41732" height="2.12598" fill="#566956" stroke="#566956" stroke-linecap="square" stroke-miterlimit="10" stroke-width=".6"/></g><g id="LWPOLYLINE-32"><rect x="132.14628" y="183.9" width="1.41732" height="2.12598" fill="#566956" stroke="#566956" stroke-linecap="square" stroke-miterlimit="10" stroke-width=".6"/></g><g id="LWPOLYLINE-33"><rect x="106.63447" y="183.19134" width="1.41732" height="2.83465" fill="#566956" stroke="#566956" stroke-linecap="square" stroke-miterlimit="10" stroke-width=".6"/></g><g id="LWPOLYLINE-34"><rect x="133.56361" y="183.19134" width="1.41732" height="2.83465" fill="#566956" stroke="#566956" stroke-linecap="square" stroke-miterlimit="10" stroke-width=".6"/></g><g id="LWPOLYLINE-35"><rect x="109.46912" y="184.18346" width="22.67717" height="1.13386" fill="none" stroke="#566956" stroke-linecap="square" stroke-miterlimit="10" stroke-width=".6"/></g><g id="LWPOLYLINE-36"><rect x="230.36674" y="220.32517" width="2.12598" height="1.41732" fill="#566956" stroke="#566956" stroke-linecap="square" stroke-miterlimit="10" stroke-width=".6"/></g><g id="LWPOLYLINE-37"><rect x="230.36674" y="244.41965" width="2.12598" height="1.41732" fill="#566956" stroke="#566956" stroke-linecap="square" stroke-miterlimit="10" stroke-width=".6"/></g><g id="LWPOLYLINE-38"><rect x="230.36674" y="218.90784" width="2.83465" height="1.41732" fill="#566956" stroke="#566956" stroke-linecap="square" stroke-miterlimit="10" stroke-width=".6"/></g><g id="LWPOLYLINE-39"><rect x="230.36674" y="245.83698" width="2.83465" height="1.41732" fill="#566956" stroke="#566956" stroke-linecap="square" stroke-miterlimit="10" stroke-width=".6"/></g><g id="LWPOLYLINE-40"><rect x="231.0754" y="221.74249" width="1.13386" height="22.67717" fill="none" stroke="#566956" stroke-linecap="square" stroke-miterlimit="10" stroke-width=".6"/></g><g id="LWPOLYLINE-41"><rect x="217.18565" y="183.33307" width="1.41732" height="2.12598" fill="#566956" stroke="#566956" stroke-linecap="square" stroke-miterlimit="10" stroke-width=".6"/></g><g id="LWPOLYLINE-42"><rect x="193.09117" y="183.33307" width="1.41732" height="2.12598" fill="#566956" stroke="#566956" stroke-linecap="square" stroke-miterlimit="10" stroke-width=".6"/></g><g id="LWPOLYLINE-43"><rect x="218.60298" y="182.62441" width="1.41732" height="2.83465" fill="#566956" stroke="#566956" stroke-linecap="square" stroke-miterlimit="10" stroke-width=".6"/></g><g id="LWPOLYLINE-44"><rect x="191.67384" y="182.62441" width="1.41732" height="2.83465" fill="#566956" stroke="#566956" stroke-linecap="square" stroke-miterlimit="10" stroke-width=".6"/></g><g id="LWPOLYLINE-45"><rect x="194.50849" y="183.61654" width="22.67717" height="1.13386" fill="none" stroke="#566956" stroke-linecap="square" stroke-miterlimit="10" stroke-width=".6"/></g><g id="LINE-2"><line x1="329.77776" y1="139.9063" x2="329.77776" y2="92.42598" fill="#566956" stroke="#566956" stroke-linecap="square" stroke-miterlimit="10" stroke-width=".6"/></g><polyline points="164.40664 64.56142 149.57934 64.56142 149.57934 81.56929 164.40664 81.56929" fill="none" stroke="#506b54" stroke-linecap="square" stroke-width=".6"/><line x1="155.96286" y1="79.51526" x2="155.25568" y2="66.64164" fill="none" stroke="#506b54" stroke-linecap="square" stroke-width=".6"/><line x1="157.94294" y1="79.40708" x2="159.78159" y2="66.64164" fill="none" stroke="#506b54" stroke-linecap="square" stroke-width=".6"/><line x1="149.57934" y1="73.06535" x2="164.40664" y2="73.06535" fill="none" stroke="#506b54" stroke-linecap="square" stroke-width=".6"/><line x1="163.31746" y1="79.51526" x2="162.61028" y2="66.64164" fill="none" stroke="#506b54" stroke-linecap="square" stroke-width=".6"/><line x1="182.94807" y1="81.56929" x2="201.48949" y2="81.56929" fill="none" stroke="#506b54" stroke-linecap="square" stroke-width=".6"/><line x1="201.48949" y1="64.56142" x2="182.94807" y2="64.56142" fill="none" stroke="#506b54" stroke-linecap="square" stroke-width=".6"/><line x1="190.9306" y1="79.51526" x2="190.04629" y2="66.64164" fill="none" stroke="#506b54" stroke-linecap="square" stroke-width=".6"/><line x1="193.40668" y1="79.40708" x2="195.7059" y2="66.64164" fill="none" stroke="#506b54" stroke-linecap="square" stroke-width=".6"/><line x1="182.94807" y1="73.06535" x2="201.48949" y2="73.06535" fill="none" stroke="#506b54" stroke-linecap="square" stroke-width=".6"/><line x1="184.20982" y1="79.40708" x2="186.50903" y2="66.64164" fill="none" stroke="#506b54" stroke-linecap="square" stroke-width=".6"/><line x1="197.29767" y1="79.46117" x2="197.29767" y2="66.52268" fill="none" stroke="#506b54" stroke-linecap="square" stroke-width=".6"/><line x1="200.12747" y1="79.51526" x2="199.24316" y2="66.64164" fill="none" stroke="#506b54" stroke-linecap="square" stroke-width=".6"/><line x1="200.87047" y1="81.56929" x2="219.4119" y2="81.56929" fill="none" stroke="#506b54" stroke-linecap="square" stroke-width=".6"/><line x1="219.4119" y1="64.56142" x2="200.87047" y2="64.56142" fill="none" stroke="#506b54" stroke-linecap="square" stroke-width=".6"/><line x1="208.85301" y1="79.51526" x2="207.96869" y2="66.64164" fill="none" stroke="#506b54" stroke-linecap="square" stroke-width=".6"/><line x1="211.32909" y1="79.40708" x2="213.62831" y2="66.64164" fill="none" stroke="#506b54" stroke-linecap="square" stroke-width=".6"/><line x1="200.87047" y1="73.06535" x2="219.4119" y2="73.06535" fill="none" stroke="#506b54" stroke-linecap="square" stroke-width=".6"/><line x1="202.13222" y1="79.40708" x2="204.43144" y2="66.64164" fill="none" stroke="#506b54" stroke-linecap="square" stroke-width=".6"/><line x1="215.22007" y1="79.46117" x2="215.22007" y2="66.52268" fill="none" stroke="#506b54" stroke-linecap="square" stroke-width=".6"/><line x1="218.04988" y1="79.51526" x2="217.16556" y2="66.64164" fill="none" stroke="#506b54" stroke-linecap="square" stroke-width=".6"/><line x1="218.79288" y1="81.56929" x2="237.3343" y2="81.56929" fill="none" stroke="#506b54" stroke-linecap="square" stroke-width=".6"/><line x1="237.3343" y1="64.56142" x2="218.79288" y2="64.56142" fill="none" stroke="#506b54" stroke-linecap="square" stroke-width=".6"/><line x1="226.77541" y1="79.51526" x2="225.8911" y2="66.64164" fill="none" stroke="#506b54" stroke-linecap="square" stroke-width=".6"/><line x1="229.25149" y1="79.40708" x2="231.55071" y2="66.64164" fill="none" stroke="#506b54" stroke-linecap="square" stroke-width=".6"/><line x1="218.79288" y1="73.06535" x2="237.3343" y2="73.06535" fill="none" stroke="#506b54" stroke-linecap="square" stroke-width=".6"/><line x1="220.05463" y1="79.40708" x2="222.35384" y2="66.64164" fill="none" stroke="#506b54" stroke-linecap="square" stroke-width=".6"/><line x1="233.14247" y1="79.46117" x2="233.14247" y2="66.52268" fill="none" stroke="#506b54" stroke-linecap="square" stroke-width=".6"/><line x1="235.97228" y1="79.51526" x2="235.08797" y2="66.64164" fill="none" stroke="#506b54" stroke-linecap="square" stroke-width=".6"/><line x1="164.40664" y1="81.56929" x2="182.94807" y2="81.56929" fill="none" stroke="#506b54" stroke-linecap="square" stroke-width=".6"/><line x1="182.94807" y1="64.56142" x2="164.40664" y2="64.56142" fill="none" stroke="#506b54" stroke-linecap="square" stroke-width=".6"/><line x1="172.38918" y1="79.51526" x2="171.50487" y2="66.64164" fill="none" stroke="#506b54" stroke-linecap="square" stroke-width=".6"/><line x1="174.86526" y1="79.40708" x2="177.16448" y2="66.64164" fill="none" stroke="#506b54" stroke-linecap="square" stroke-width=".6"/><line x1="164.40664" y1="73.06535" x2="182.94807" y2="73.06535" fill="none" stroke="#506b54" stroke-linecap="square" stroke-width=".6"/><line x1="165.66839" y1="79.40708" x2="167.96761" y2="66.64164" fill="none" stroke="#506b54" stroke-linecap="square" stroke-width=".6"/><line x1="178.75624" y1="79.46117" x2="178.75624" y2="66.52268" fill="none" stroke="#506b54" stroke-linecap="square" stroke-width=".6"/><line x1="181.58605" y1="79.51526" x2="180.70173" y2="66.64164" fill="none" stroke="#506b54" stroke-linecap="square" stroke-width=".6"/><polyline points="285.42612 142.37238 276.39705 142.37238 276.39705 159.38026 285.42612 159.38026" fill="none" stroke="#506b54" stroke-linecap="square" stroke-width=".6"/><line x1="280.28429" y1="157.32623" x2="279.85366" y2="144.4526" fill="none" stroke="#506b54" stroke-linecap="square" stroke-width=".6"/><line x1="276.39705" y1="150.87632" x2="285.42612" y2="150.87632" fill="none" stroke="#506b54" stroke-linecap="square" stroke-width=".6"/><line x1="284.76286" y1="157.32623" x2="284.33223" y2="144.4526" fill="none" stroke="#506b54" stroke-linecap="square" stroke-width=".6"/><line x1="296.7169" y1="159.38026" x2="308.00768" y2="159.38026" fill="none" stroke="#506b54" stroke-linecap="square" stroke-width=".6"/><line x1="308.00768" y1="142.37238" x2="296.7169" y2="142.37238" fill="none" stroke="#506b54" stroke-linecap="square" stroke-width=".6"/><line x1="301.57786" y1="157.32623" x2="301.03936" y2="144.4526" fill="none" stroke="#506b54" stroke-linecap="square" stroke-width=".6"/><line x1="303.08567" y1="157.21804" x2="304.48577" y2="144.4526" fill="none" stroke="#506b54" stroke-linecap="square" stroke-width=".6"/><line x1="296.7169" y1="150.87632" x2="308.00768" y2="150.87632" fill="none" stroke="#506b54" stroke-linecap="square" stroke-width=".6"/><line x1="297.48525" y1="157.21804" x2="298.88535" y2="144.4526" fill="none" stroke="#506b54" stroke-linecap="square" stroke-width=".6"/><line x1="285.42612" y1="159.38026" x2="296.7169" y2="159.38026" fill="none" stroke="#506b54" stroke-linecap="square" stroke-width=".6"/><line x1="296.7169" y1="142.37238" x2="285.42612" y2="142.37238" fill="none" stroke="#506b54" stroke-linecap="square" stroke-width=".6"/><line x1="290.28708" y1="157.32623" x2="289.74858" y2="144.4526" fill="none" stroke="#506b54" stroke-linecap="square" stroke-width=".6"/><line x1="291.79489" y1="157.21804" x2="293.19499" y2="144.4526" fill="none" stroke="#506b54" stroke-linecap="square" stroke-width=".6"/><line x1="285.42612" y1="150.87632" x2="296.7169" y2="150.87632" fill="none" stroke="#506b54" stroke-linecap="square" stroke-width=".6"/><line x1="286.19446" y1="157.21804" x2="287.59457" y2="144.4526" fill="none" stroke="#506b54" stroke-linecap="square" stroke-width=".6"/><line x1="295.8875" y1="157.32623" x2="295.349" y2="144.4526" fill="none" stroke="#506b54" stroke-linecap="square" stroke-width=".6"/><line x1="288.27855" y1="25.15981" x2="312.25966" y2="25.15981" fill="none" stroke="#506b54" stroke-linecap="square" stroke-width=".6"/><line x1="312.25966" y1="8.15194" x2="288.27855" y2="8.15194" fill="none" stroke="#506b54" stroke-linecap="square" stroke-width=".6"/><line x1="298.60301" y1="23.10578" x2="297.45925" y2="10.23216" fill="none" stroke="#506b54" stroke-linecap="square" stroke-width=".6"/><line x1="301.80552" y1="22.9976" x2="304.77928" y2="10.23216" fill="none" stroke="#506b54" stroke-linecap="square" stroke-width=".6"/><line x1="288.27855" y1="16.65588" x2="312.25966" y2="16.65588" fill="none" stroke="#506b54" stroke-linecap="square" stroke-width=".6"/><line x1="289.91047" y1="22.9976" x2="292.88424" y2="10.23216" fill="none" stroke="#506b54" stroke-linecap="square" stroke-width=".6"/><line x1="306.83804" y1="23.05169" x2="306.83804" y2="10.1132" fill="none" stroke="#506b54" stroke-linecap="square" stroke-width=".6"/><line x1="310.49805" y1="23.10578" x2="309.3543" y2="10.23216" fill="none" stroke="#506b54" stroke-linecap="square" stroke-width=".6"/><line x1="312.25966" y1="25.15981" x2="336.24077" y2="25.15981" fill="none" stroke="#506b54" stroke-linecap="square" stroke-width=".6"/><line x1="336.24077" y1="8.15194" x2="312.25966" y2="8.15194" fill="none" stroke="#506b54" stroke-linecap="square" stroke-width=".6"/><line x1="322.58412" y1="23.10578" x2="321.44036" y2="10.23216" fill="none" stroke="#506b54" stroke-linecap="square" stroke-width=".6"/><line x1="325.78663" y1="22.9976" x2="328.76039" y2="10.23216" fill="none" stroke="#506b54" stroke-linecap="square" stroke-width=".6"/><line x1="312.25966" y1="16.65588" x2="336.24077" y2="16.65588" fill="none" stroke="#506b54" stroke-linecap="square" stroke-width=".6"/><line x1="313.89158" y1="22.9976" x2="316.86535" y2="10.23216" fill="none" stroke="#506b54" stroke-linecap="square" stroke-width=".6"/><line x1="330.81915" y1="23.05169" x2="330.81915" y2="10.1132" fill="none" stroke="#506b54" stroke-linecap="square" stroke-width=".6"/><line x1="334.47916" y1="23.10578" x2="333.33541" y2="10.23216" fill="none" stroke="#506b54" stroke-linecap="square" stroke-width=".6"/><g id="LINE-3"><rect x="260.04077" y="229.04641" width="39.68504" height="17.00787" fill="none" stroke="#566956" stroke-miterlimit="10" stroke-width=".6"/></g><path d="M288.31219,225.93165c-.01145-.01118-.0262-.01813-.03668-.03035.01055.01225.02519.0191.03668.03035Z" fill="none" stroke="#566956" stroke-miterlimit="10" stroke-width=".6"/><path d="M288.43897,226.03013c-.04751-.02481-.08807-.06076-.12679-.09848.03876.03796.0791.07346.12679.09848Z" fill="none" stroke="#566956" stroke-miterlimit="10" stroke-width=".6"/><path d="M288.27551,225.9013c-.04602-.05353-.08308-.1163-.10648-.18755.02318.07125.06038.13378.10648.18755Z" fill="none" stroke="#566956" stroke-miterlimit="10" stroke-width=".6"/><path d="M288.4933,226.0484c-.01779-.00709-.03737-.00938-.05433-.01827.01709.00893.0364.01114.05433.01827Z" fill="none" stroke="#566956" stroke-miterlimit="10" stroke-width=".6"/><path d="M282.28284,218.26159c-.06146-.03775-.1143-.08675-.1562-.14381.04132.05609.09336.10544.1562.14381Z" fill="none" stroke="#566956" stroke-miterlimit="10" stroke-width=".6"/><path d="M288.63725,226.0892c-.05035-.00529-.09748-.02239-.14395-.0408.04665.01862.09326.03547.14395.0408Z" fill="none" stroke="#566956" stroke-miterlimit="10" stroke-width=".6"/><path d="M288.7049,226.08574c-.02256.00042-.0455.00581-.06765.00346.02239.00235.04488-.00301.06765-.00346Z" fill="none" stroke="#566956" stroke-miterlimit="10" stroke-width=".6"/><path d="M276.36405,220.80297c.2515.03969.51349-.01152.72599-.17008.73582-.60408,1.48887-1.18629,2.255-1.75089" fill="none" stroke="#566956" stroke-miterlimit="10" stroke-width=".6"/><path d="M279.34504,218.882c.69931-.51536,1.40924-1.01645,2.1326-1.498.21447-.15544.27437-.44909.13793-.67609-.22288-.36545-.54314-.66163-.92486-.8553-.236-.12087-.50902-.1479-.76412-.07557-1.81535.51802-3.50485,1.40371-4.96358,2.60204-.33794.27832-.40936.76772-.16506,1.13099.31496.46878.72485.8662,1.20314,1.16653.11264.07073.23679.10644.36296.12637" fill="none" stroke="#566956" stroke-miterlimit="10" stroke-width=".6"/><path d="M289.74679,229.04641c.09616-.15624.20351-.30479.29351-.46504.12942-.23143.16641-.50328.10347-.76084-.10001-.41622-.31396-.79637-.61785-1.09781-.18921-.18534-.48878-.19506-.68962-.02242-.63605.59218-1.28799,1.16677-1.95138,1.72774l-.76308.61837" fill="none" stroke="#566956" stroke-miterlimit="10" stroke-width=".6"/><path d="M286.88491,228.42804c.58539-.61159,1.15629-1.2374,1.70704-1.88155.1153-.13406.19582-.29444.23448-.46694-.0409.01004-.08101.0055-.12153.00619-.02277.00045-.04526.00581-.06765.00346-.05069-.00533-.09731-.02218-.14395-.0408-.01792-.00713-.03723-.00934-.05433-.01827-.04768-.02502-.08803-.06052-.12679-.09848-.01149-.01125-.02613-.0181-.03668-.03035-.04609-.05377-.08329-.1163-.10648-.18755-1.01421-3.10456-3.10096-5.74646-5.88619-7.45215-.06284-.03838-.11488-.08772-.1562-.14381-.0008-.00111-.001-.00256-.0018-.00367-.04066-.05606-.06962-.11862-.08692-.18478-.00038-.00145-.00149-.00256-.00187-.00401-.00294-.0117.00052-.02294-.00163-.03464-.01069-.05685-.01574-.11412-.0081-.17243.00339-.02554.01436-.04786.02118-.07243.00997-.0364.01388-.07364.03177-.10845-.17679-.00235-.35147.03883-.50857.1199-.75419.38656-1.49513.79696-2.22565,1.22474-.76613.5646-1.51918,1.14681-2.255,1.75089-.2125.15855-.47449.20977-.72599.17008-.96178.66948-1.90678,1.36346-2.81489,2.10655-.36687.29974-.46155.82167-.22326,1.23114.99753,1.7194,2.1235,3.35744,3.36208,4.90576" fill="none" stroke="#566956" stroke-miterlimit="10" stroke-width=".6"/><path d="M282.12484,218.11411c-.0399-.05519-.06948-.11769-.08692-.18478.0173.06616.04627.12873.08692.18478Z" fill="none" stroke="#566956" stroke-miterlimit="10" stroke-width=".6"/><path d="M282.02632,217.71824c.00322-.0246.01453-.04813.02118-.07243-.00682.02457-.01779.04689-.02118.07243Z" fill="none" stroke="#566956" stroke-miterlimit="10" stroke-width=".6"/><path d="M282.03442,217.89067c-.01073-.0582-.01557-.11637-.0081-.17243-.00765.05831-.0026.11558.0081.17243Z" fill="none" stroke="#566956" stroke-miterlimit="10" stroke-width=".6"/><path d="M288.16903,225.71374c.02339.07125.06045.13402.10648.18755.01048.01222.02523.01917.03668.03035.03872.03772.07928.07367.12679.09848.01696.00889.03654.01118.05433.01827.04647.01841.0936.0355.14395.0408.02215.00235.04509-.00305.06765-.00346.05381-.001.10793-.00149.1617-.01914.13717-.04502.25129-.14191.31794-.26994l1.03552-1.99557.30026-.58031c.13385-.25735.13212-.56418-.00467-.81997-1.13708-2.13786-2.6501-4.05339-4.46646-5.65472-.21717-.19229-.51525-.26507-.79658-.19444l-.63408.15766-2.18115.54518c-.19966.05021-.33832.20627-.38988.39134-.00664.02429-.01796.04782-.02118.07243-.00747.05606-.00263.11423.0081.17243.00239.01273.00024.02613.00349.03865.01744.0671.04703.12959.08692.18478.0008.00114.00097.00256.0018.00367.04191.05706.09475.10606.1562.14381" fill="none" stroke="#566956" stroke-miterlimit="10" stroke-width=".6"/><path d="M282.03604,217.92531c.00038.00145.00076-.0219-.00163-.03464.00215.0117-.00131.02294.00163.03464Z" fill="none" stroke="#566956" stroke-miterlimit="10" stroke-width=".6"/><rect x="311.35257" y="141.85905" width="17.00824" height="17.01103" fill="none" stroke="#566956" stroke-linecap="square" stroke-miterlimit="10" stroke-width=".6"/><path d="M314.50682,150.39549c.37109-2.72176,2.90686-4.57751,5.62818-4.20636,2.16469.30929,3.71089,2.35061,3.40165,4.51565h0c-.24739,1.73203-1.85544,2.9692-3.58719,2.72176h0c-1.42251-.18557-2.35023-1.4846-2.16469-2.90734h0c.18555-1.11345,1.17512-1.85575,2.28838-1.73203h0c.86587.12372,1.48436.92787,1.36066,1.85575-.12369.7423-.74218,1.23717-1.48436,1.11345h0c-.55663-.06186-.98957-.61858-.86587-1.17531h0" fill="none" stroke="#566956" stroke-linecap="square" stroke-miterlimit="10" stroke-width=".6"/><circle cx="319.88761" cy="150.39549" r="5.38123" fill="none" stroke="#566956" stroke-linecap="square" stroke-miterlimit="10" stroke-width=".6"/><rect x="123.35756" y="10.90157" width="17.00824" height="17.01103" fill="none" stroke="#566956" stroke-linecap="square" stroke-miterlimit="10" stroke-width=".6"/><circle cx="131.8926" cy="19.43802" r="5.38123" fill="none" stroke="#566956" stroke-linecap="square" stroke-miterlimit="10" stroke-width=".6"/><path d="M327.12571,110.31159c.27659.00211.50194-.22152.50194-.49812v-9.37569c0-.2766-.22535-.50024-.50194-.49812" fill="none" stroke="#566956" stroke-linecap="square" stroke-miterlimit="10" stroke-width=".6"/><g id="SPLINE"><path d="M329.77776,99.93828c-1.05906.00109-2.20312.00125-3.26219.00875-1.05859.0075-2.1175.01531-3.17594.02906-1.06203.01359-2.12406.0275-3.18594.04562-.265.00437-.52906.00594-.79297.03375-.25609.02703-.51047.06547-.76016.12875-.48219.12234-.94469.32328-1.37219.57609-.8325.49203-1.52422,1.24422-1.95031,2.11203-.34469.70187-.51453,1.47328-.52391,2.25328.00625.5175.07937,1.02609.23437,1.52016.14781.47141.36094.91906.63781,1.32844.54734.80938,1.33344,1.46156,2.23531,1.84078.46828.19672.965.32672,1.47078.37844.26031.02656.52234.03109.78391.03547.26297.00438.52609.00875.78906.01266,1.05906.01625,5.29062.06141,6.34734.06656.81344.00406,1.71172.00438,2.525.00484v-10.37469Z" fill="none" stroke="#566956" stroke-linecap="square" stroke-miterlimit="10" stroke-width=".6"/></g><rect x="157.3743" y="10.90157" width="17.00824" height="17.01103" fill="none" stroke="#566956" stroke-linecap="square" stroke-miterlimit="10" stroke-width=".6"/><line x1="174.38254" y1="10.90157" x2="157.3743" y2="27.9126" fill="none" stroke="#566956" stroke-linecap="round" stroke-miterlimit="10" stroke-width=".6"/><rect x="15.92581" y="10.90157" width="17.00824" height="17.01103" fill="none" stroke="#566956" stroke-linecap="square" stroke-miterlimit="10" stroke-width=".6"/><line x1="32.93405" y1="10.90157" x2="15.92581" y2="27.9126" fill="none" stroke="#566956" stroke-linecap="round" stroke-miterlimit="10" stroke-width=".6"/><rect x="140.3658" y="10.90473" width="17.0085" height="17.0085" transform="translate(297.74011 38.81795) rotate(-180)" fill="none" stroke="#566956" stroke-linecap="square" stroke-miterlimit="10" stroke-width=".6"/><line x1="143.67958" y1="19.40898" x2="154.06053" y2="19.40898" fill="none" stroke="#566956" stroke-linecap="square" stroke-miterlimit="10" stroke-width=".6"/><line x1="148.87005" y1="24.59983" x2="148.87005" y2="14.21812" fill="none" stroke="#566956" stroke-linecap="square" stroke-miterlimit="10" stroke-width=".6"/><line x1="145.19983" y1="15.73849" x2="152.54027" y2="23.07946" fill="none" stroke="#566956" stroke-linecap="square" stroke-miterlimit="10" stroke-width=".6"/><line x1="145.19983" y1="23.07946" x2="152.54027" y2="15.73849" fill="none" stroke="#566956" stroke-linecap="square" stroke-miterlimit="10" stroke-width=".6"/><line x1="145.78503" y1="19.40898" x2="144.86264" y2="20.32889" fill="none" stroke="#566956" stroke-linecap="square" stroke-miterlimit="10" stroke-width=".6"/><line x1="144.86264" y1="18.48906" x2="145.78503" y2="19.40898" fill="none" stroke="#566956" stroke-linecap="square" stroke-miterlimit="10" stroke-width=".6"/><line x1="151.95508" y1="19.40898" x2="152.87747" y2="20.32889" fill="none" stroke="#566956" stroke-linecap="square" stroke-miterlimit="10" stroke-width=".6"/><line x1="152.87747" y1="18.48906" x2="151.95508" y2="19.40898" fill="none" stroke="#566956" stroke-linecap="square" stroke-miterlimit="10" stroke-width=".6"/><line x1="146.68861" y1="21.59237" x2="146.68861" y2="22.89333" fill="none" stroke="#566956" stroke-linecap="square" stroke-miterlimit="10" stroke-width=".6"/><line x1="145.38595" y1="21.59237" x2="146.68861" y2="21.59237" fill="none" stroke="#566956" stroke-linecap="square" stroke-miterlimit="10" stroke-width=".6"/><line x1="151.05329" y1="17.22738" x2="152.35416" y2="17.22738" fill="none" stroke="#566956" stroke-linecap="square" stroke-miterlimit="10" stroke-width=".6"/><line x1="151.05329" y1="15.92462" x2="151.05329" y2="17.22738" fill="none" stroke="#566956" stroke-linecap="square" stroke-miterlimit="10" stroke-width=".6"/><line x1="151.05149" y1="21.59237" x2="151.05149" y2="22.89333" fill="none" stroke="#566956" stroke-linecap="square" stroke-miterlimit="10" stroke-width=".6"/><line x1="152.35416" y1="21.59237" x2="151.05149" y2="21.59237" fill="none" stroke="#566956" stroke-linecap="square" stroke-miterlimit="10" stroke-width=".6"/><line x1="146.68682" y1="17.22738" x2="145.38595" y2="17.22738" fill="none" stroke="#566956" stroke-linecap="square" stroke-miterlimit="10" stroke-width=".6"/><line x1="146.68682" y1="15.92462" x2="146.68682" y2="17.22738" fill="none" stroke="#566956" stroke-linecap="square" stroke-miterlimit="10" stroke-width=".6"/><line x1="148.87005" y1="22.49422" x2="147.9502" y2="23.41669" fill="none" stroke="#566956" stroke-linecap="square" stroke-miterlimit="10" stroke-width=".6"/><line x1="148.87005" y1="16.32373" x2="147.9502" y2="15.40127" fill="none" stroke="#566956" stroke-linecap="square" stroke-miterlimit="10" stroke-width=".6"/><line x1="149.78991" y1="15.40127" x2="148.87005" y2="16.32373" fill="none" stroke="#566956" stroke-linecap="square" stroke-miterlimit="10" stroke-width=".6"/><line x1="149.78991" y1="23.41669" x2="148.87005" y2="22.49422" fill="none" stroke="#566956" stroke-linecap="square" stroke-miterlimit="10" stroke-width=".6"/><polyline points="112.21576 13.44313 113.60201 13.44313 113.60201 12.23618 112.21576 12.23618" fill="none" stroke="#566956" stroke-linecap="square" stroke-miterlimit="10" stroke-width=".6"/><polyline points="109.84148 13.44313 111.64881 13.44313 111.64881 12.23618 107.2894 12.23618 107.2894 13.44313 109.09673 13.44313" fill="none" stroke="#566956" stroke-linecap="square" stroke-miterlimit="10" stroke-width=".6"/><rect x="109.09673" y="12.90348" width=".74474" height="8.25551" fill="none" stroke="#566956" stroke-linecap="square" stroke-miterlimit="10" stroke-width=".6"/><polyline points="108.52978 14.54627 102.29707 14.54627 102.29707 26.58039 116.64114 26.58039 116.64114 14.54627 110.47817 14.54627" fill="none" stroke="#566956" stroke-linecap="square" stroke-miterlimit="10" stroke-width=".6"/><line x1="100.96485" y1="10.9041" x2="117.97335" y2="10.9041" fill="none" stroke="#566956" stroke-linecap="square" stroke-miterlimit="10" stroke-width=".6"/><line x1="117.97335" y1="27.9126" x2="100.96485" y2="27.9126" fill="none" stroke="#566956" stroke-linecap="square" stroke-miterlimit="10" stroke-width=".6"/><path d="M108.52979,19.72804c-.28479.25735-.46705.62585-.46705,1.03992,0,.77672.62965,1.40637,1.40637,1.40637s1.40637-.62965,1.40637-1.40637c0-.41407-.18226-.78257-.46705-1.03992" fill="none" stroke="#566956" stroke-linecap="square" stroke-miterlimit="10" stroke-width=".6"/><line x1="83.95635" y1="10.9041" x2="100.96485" y2="10.9041" fill="none" stroke="#566956" stroke-linecap="square" stroke-miterlimit="10" stroke-width=".6"/><line x1="83.95635" y1="27.9126" x2="100.96485" y2="27.9126" fill="none" stroke="#566956" stroke-linecap="square" stroke-miterlimit="10" stroke-width=".6"/><path d="M92.46027,24.5924c-1.43155,0-2.72758-.58025-3.66573-1.51839-.93814-.93814-1.51839-2.23417-1.51839-3.66573,0-1.43155.58025-2.72758,1.51839-3.66573s2.23417-1.51839,3.66573-1.51839c1.43155,0,2.72758.58025,3.66573,1.51839" fill="none" stroke="#566956" stroke-linecap="square" stroke-miterlimit="10" stroke-width=".6"/><path d="M92.46027,23.32385c-2.16251,0-3.91557-1.75306-3.91557-3.91557" fill="none" stroke="#566956" stroke-linecap="square" stroke-miterlimit="10" stroke-width=".6"/><path d="M88.5447,19.40828c0-2.16251,1.75306-3.91557,3.91557-3.91557" fill="none" stroke="#566956" stroke-linecap="square" stroke-miterlimit="10" stroke-width=".6"/><path d="M92.46027,15.49271c1.00208,0,2.00416.38228,2.76873,1.14684" fill="none" stroke="#566956" stroke-linecap="square" stroke-miterlimit="10" stroke-width=".6"/><path d="M92.71515,18.84714v.96673c0,1.36117,1.10345,2.46462,2.46462,2.46462,1.36117,0,2.46462-1.10345,2.46462-2.46462v-.96673" fill="none" stroke="#566956" stroke-linecap="square" stroke-miterlimit="10" stroke-width=".6"/><line x1="95.17977" y1="22.27848" x2="95.17977" y2="24.5924" fill="none" stroke="#566956" stroke-linecap="square" stroke-miterlimit="10" stroke-width=".6"/><line x1="93.43052" y1="24.5924" x2="96.92902" y2="24.5924" fill="none" stroke="#566956" stroke-linecap="square" stroke-miterlimit="10" stroke-width=".6"/><line x1="55.2623" y1="24.80587" x2="55.2623" y2="19.9753" fill="none" stroke="#566956" stroke-linecap="square" stroke-miterlimit="10" stroke-width=".6"/><line x1="57.90796" y1="22.39058" x2="52.61664" y2="22.39058" fill="none" stroke="#566956" stroke-linecap="square" stroke-miterlimit="10" stroke-width=".6"/><line x1="55.2623" y1="18.8414" x2="55.2623" y2="14.01084" fill="none" stroke="#566956" stroke-linecap="square" stroke-miterlimit="10" stroke-width=".6"/><line x1="57.90796" y1="16.42612" x2="52.61664" y2="16.42612" fill="none" stroke="#566956" stroke-linecap="square" stroke-miterlimit="10" stroke-width=".6"/><line x1="61.62807" y1="24.80587" x2="61.62807" y2="19.9753" fill="none" stroke="#566956" stroke-linecap="square" stroke-miterlimit="10" stroke-width=".6"/><line x1="64.27373" y1="22.39058" x2="58.98241" y2="22.39058" fill="none" stroke="#566956" stroke-linecap="square" stroke-miterlimit="10" stroke-width=".6"/><line x1="61.62807" y1="18.8414" x2="61.62807" y2="14.01084" fill="none" stroke="#566956" stroke-linecap="square" stroke-miterlimit="10" stroke-width=".6"/><line x1="64.27373" y1="16.42612" x2="58.98241" y2="16.42612" fill="none" stroke="#566956" stroke-linecap="square" stroke-miterlimit="10" stroke-width=".6"/><rect x="51.27313" y="12.23611" width="14.34403" height="14.34443" transform="translate(39.03682 77.85347) rotate(-90)" fill="none" stroke="#566956" stroke-linecap="square" stroke-miterlimit="10" stroke-width=".6"/><line x1="49.94093" y1="10.9041" x2="66.94943" y2="10.9041" fill="none" stroke="#566956" stroke-linecap="square" stroke-miterlimit="10" stroke-width=".6"/><line x1="66.94943" y1="27.9126" x2="49.94093" y2="27.9126" fill="none" stroke="#566956" stroke-linecap="square" stroke-miterlimit="10" stroke-width=".6"/><rect x="18.82661" y="93.27183" width="1.13386" height="42.51969" transform="translate(38.78707 229.06334) rotate(-180)" fill="none" stroke="#566956" stroke-linecap="square" stroke-miterlimit="10" stroke-width=".6"/><polyline points="18.25968 100.49576 17.12582 100.49576 17.12582 128.56758 18.25968 128.56758" fill="none" stroke="#566956" stroke-linecap="square" stroke-miterlimit="10" stroke-width=".6"/><path d="M113.52246,143.81214c-.52356,1.25682-.92323,4.21116,0,6.51969.2361.0953.97142.30586,1.32122.3189s1.56183.1063,2.85106.1063h19.60059c1.25558,0,3.40504.01113,4.45044-.4252.46172-1.31736.41723-3.50204.41723-5.10236s-.01012-63.83432-.01012-64.97224-.03178-3.51656-.40708-4.75755c-2.253-.37205-3.46164-.4252-5.86385-.4252h-18.18718c-1.72559,0-3.52985.12437-4.17229.4252-.54849,1.65447-.82985,4.15732,0,6.51969-.34457,1.2265-.56618,2.63728-.56618,3.45412s.01348,54.35636.01348,55.12456.21692,2.48825.55267,3.21411Z" fill="none" stroke="#566956" stroke-linecap="square" stroke-miterlimit="10" stroke-width=".6"/><path d="M113.52246,143.81214c.31572-.14996,1.57527-.4252,4.17229-.4252h13.35597c2.08788,0,3.74224.25125,5.07622,1.5022s5.61884,5.44269,5.61884,5.44269" fill="none" stroke="#566956" stroke-linecap="square" stroke-miterlimit="10" stroke-width=".6"/><path d="M129.57191,142.12358c.03404.31616.73099.80066,1.23494.83746s1.17912.06705,1.40673.10144.4323.05669.89195-.05065.77471.04121,1.19763-.05794,1.03683-.05919,1.62953.02263c.80007.11045,2.31563-.06785,2.73512.01999s1.64969.33433,1.90341.05848.63382-.43451.63748-1.27408-.13137-2.62363-.15443-3.49512-.01861-3.2298-.10439-4.4031c-.13888-1.89973-.08303-3.88236-.13888-4.60065s-.04592-.82587-.03108-1.49506.05049-2.74159.06432-3.14583-.1864-.95821-.73662-.98375c-.15124-.00702-.33167.05484-.53068,0s-.62654-.01161-.92636.05784-.61555.10448-1.13525.0905-1.34462-.06494-1.77555.02075-1.70402.09661-2.02742.02341-.45916.05951-1.02562-.04416-1.82195.1411-2.24523.16798-1.01194.47231-1.05033,1.09662-.53945,7.04377-.29806,10.39886l.47877,6.65438Z" fill="none" stroke="#566956" stroke-linecap="square" stroke-miterlimit="10" stroke-width=".6"/><path d="M129.5453,121.78119c.07717.74442.59703,1.13563,1.29109,1.1713s1.02445.22098,1.66871.17375,1.24344-.17908,1.74504-.15032,1.06914-.11692,1.49158-.02343,1.43841.1066,2.04961.01332,1.14306.19323,1.67832.13257,1.03848.26323,1.39282-.35713.35556-.68079.27109-3.02529-.02053-2.99139-.18363-5.11689-.06573-3.91553-.17499-5.0524.08609-3.36148.08753-4.22049-.24807-1.0728-.89973-1.05401c-.58558-.11517-1.13586-.01462-1.7803.12323s-2.07612.04943-2.97918.09364-1.40285-.04382-2.31415-.06742-1.24318-.06697-1.72217.05537-1.11162-.09792-1.50564.47475-.34847,1.67324-.4208,2.99552-.37005,5.03125-.14711,7.9393l.4519,5.89464Z" fill="none" stroke="#566956" stroke-linecap="square" stroke-miterlimit="10" stroke-width=".6"/><path d="M115.12744,87.21316c.04766.56221.33091,1.15179,1.00654,1.21253s3.44522.37482,4.49381.40403,2.55829.08709,4.42857-.08107,4.43428-.13719,4.53977-1.1847.25046-1.72113.13047-2.40781.0411-1.20248-.05271-1.80656.06354-1.41728.06542-2.01134-.11243-1.46637-.01023-2.04711.28517-2.00536-.02745-2.28974-.26493-.56863-1.80573-.47008-3.67965.12743-4.57849.19739-2.93765-.00231-3.69779.06828-2.37448-.02738-3.24302-.03647-1.4507-.16359-1.44382,1.2862.1763,1.34343.11811,2.37794.18615,2.00597.11453,2.64-.03584,1.12059-.13743,1.92577.03524,1.46547.09943,2.22274Z" fill="none" stroke="#566956" stroke-linecap="square" stroke-miterlimit="10" stroke-width=".6"/><path d="M113.5225,82.01936c.34535.07422.95891.23554,1.60368.35352" fill="none" stroke="#566956" stroke-linecap="square" stroke-miterlimit="10" stroke-width=".6"/><path d="M129.6739,82.44456c1.04711,0,2.55248.06139,3.90877-.23524s1.60681-.36507,2.5443-1.26695,5.61884-5.44269,5.61884-5.44269" fill="none" stroke="#566956" stroke-linecap="square" stroke-miterlimit="10" stroke-width=".6"/><path d="M134.94149,85.33197c.0306-.88518-.25464-3.2202,1.18549-4.38961" fill="none" stroke="#566956" stroke-linecap="square" stroke-miterlimit="10" stroke-width=".6"/><path d="M135.08355,142.87755c.13211.65636.47213,1.46944,1.04339,2.01159" fill="none" stroke="#566956" stroke-linecap="square" stroke-miterlimit="10" stroke-width=".6"/><line x1="134.93105" y1="123.90899" x2="134.93105" y2="122.92278" fill="none" stroke="#566956" stroke-linecap="square" stroke-miterlimit="10" stroke-width=".6"/><path d="M129.37524,101.81318c.06828.81482.54532,1.33103,1.26376,1.39405s1.23893.27763,1.86611.17183,1.05688.01247,1.98765-.09948,1.52631.15982,2.25825.079,1.41474-.01205,2.2297.10224,1.89756.16498,1.87185-.82382c-.10045-3.86353-.05535-4.77395-.0178-5.47459.05118-.95495-.08621-1.93546.07059-3.34493s.11818-2.49862.14897-3.41383.35038-4.23151,0-4.63716-.56841-.73816-1.3155-.58898-.89677.07423-1.37258.16677-1.59913-.08425-2.12775-.07295-1.0242.17617-1.97131.04418-2.38706-.18641-3.21645-.03255-1.25041.17653-1.29975.70501.11599,1.06013-.15484,1.57599c-.38981.7425-.6748,5.64798-.62847,7.4541s.40756,6.79511.40756,6.79511Z" fill="none" stroke="#566956" stroke-linecap="square" stroke-miterlimit="10" stroke-width=".6"/><line x1="134.93108" y1="104.48387" x2="134.93108" y2="103.20723" fill="none" stroke="#566956" stroke-linecap="square" stroke-miterlimit="10" stroke-width=".6"/><path d="M112.94478,85.98267c.01619,1.87698-.00584,13.41854-.00584,14.24451s-.35139,2.85848-.56665,3.37853c-.88705.54136-2.95746.54136-4.3341.54136s-8.84882.00017-9.82708.00017-2.63138-.09953-4.12399-.55609c-.55818-1.83317-.56391-2.49396-.56391-3.98069v-19.26712c0-1.51938.11826-3.4778.57493-4.82803,1.78428-.55323,3.05022-.55323,4.52044-.55323h10.83672c1.35459,0,3.18257.31209,3.90951.55323" fill="none" stroke="#566956" stroke-linecap="square" stroke-miterlimit="10" stroke-width=".6"/><path d="M87.55459,122.64456c-.97657-1.89686-1.09764-4.20735-.11564-6.28527,1.67557-3.54552,5.9081-5.06142,9.45362-3.38585s5.06142,5.9081,3.38585,9.45362c-.41885.8863-.99743,1.64574-1.68517,2.26022-.78418-.78178-1.70429-1.45221-2.76275-1.95243-2.72003-1.28545-5.7259-1.22129-8.2759-.09028Z" fill="none" stroke="#566956" stroke-linecap="square" stroke-miterlimit="10" stroke-width=".6"/><path d="M87.33861,140.70376c-4.96196-2.34496-7.08349-8.26847-4.73853-13.23044,1.05951-2.24193,2.85266-3.89655,4.95451-4.82876,2.55001-1.131,5.55587-1.19517,8.2759.09028,1.05847.50022,1.97857,1.17065,2.76275,1.95243,2.89195,2.88326,3.82049,7.37443,1.97575,11.27792-2.34496,4.96196-8.26842,7.08352-13.23038,4.73856Z" fill="none" stroke="#566956" stroke-linecap="square" stroke-miterlimit="10" stroke-width=".6"/><path d="M46.59148,170.58477c1.52315.66062,2.62161,1.13169,2.81571,1.2014.73997.26574,2.12699.84821,3.33452.79483,1.20534-1.36891,1.51687-2.00842,2.06639-3.27094s7.01965-15.78387,7.20405-16.43178.5101-1.39365.49844-2.00837c-.76095-.76452-2.21455-1.56924-2.98946-1.90671s-14.11611-6.19581-15.12899-6.58859-2.04952-.94775-3.73558-1.02143c-.5232.39996-1.34266,1.05566-1.65952,1.7844s-6.97903,15.90667-7.24464,16.64791-.83607,2.47681-.85272,3.3398c1.78542,1.41022,2.98433,1.90448,3.43377,2.10012.25234.10984,4.73963,2.08067,8.75791,3.8352" fill="none" stroke="#566956" stroke-linecap="round" stroke-miterlimit="10" stroke-width=".6"/><path d="M52.77713,161.82524c-.6242-.73477-2.61792-3.05302-5.48364-5.77216-2.86572-2.71914-5.17623-4.22719-5.79846-4.68199s-1.16989-.51442-1.72319-.00463-.86923.66922-.9947.93361-.54281.31071-.65171.57592-.65772.69419-.81775,1.0712-.643.73713-1.12217,1.17435-1.26183,1.29295-1.52744,1.60904-.38171.45428-.91667.77553-1.27364,1.57791-.65943,2.06778,3.10872,2.61757,3.67239,3.27992,1.84477,1.67013,2.35482,2.20347,1.57225,1.64789,2.12976,2.16709,1.90889,1.84371,2.36878,2.41261,1.33684,1.43152,1.78945,1.4057.8887.15793,1.25308-.52643.82474-.92505,1.23528-1.55175,1.22007-1.22315,1.44335-1.57907.83499-.96795,1.13645-1.21844.45024-.56432.91481-.88045.79906-.73488.8896-.94058-.00679-.3184.39356-.63289.86744-1.00074.11384-1.88783Z" fill="none" stroke="#566956" stroke-linecap="square" stroke-miterlimit="10" stroke-width=".6"/><circle cx="67.79505" cy="164.77297" r="5.66929" fill="none" stroke="#566956" stroke-linecap="square" stroke-miterlimit="10" stroke-width=".6"/><rect x="292.92737" y="65.34091" width="25.51181" height="25.51181" transform="translate(383.7801 -227.58646) rotate(90)" fill="none" stroke-width="0"/><rect x="313.15862" y="73.24145" width=".85039" height="9.71074" transform="translate(391.68063 -235.48699) rotate(90)" fill="none" stroke="#566956" stroke-miterlimit="10" stroke-width=".6"/><polyline points="314.89824 77.67162 314.89824 67.84093 316.93918 67.84093 316.93918 77.67162" fill="none" stroke="#566956" stroke-miterlimit="10" stroke-width=".6"/><polyline points="314.89824 78.52202 314.89824 88.35271 316.93918 88.35271 316.93918 78.52202" fill="none" stroke="#566956" stroke-miterlimit="10" stroke-width=".6"/><path d="M311.32551,78.52202c-.20326,1.25101-1.28863,2.20604-2.59706,2.20604-1.45319,0-2.63124-1.17805-2.63124-2.63124s1.17805-2.63124,2.63124-2.63124c1.30843,0,2.3938.95503,2.59706,2.20604" fill="none" stroke="#566956" stroke-miterlimit="10" stroke-width=".6"/><rect x="318.47853" y="184.87772" width="13.0394" height="22.67717" transform="translate(521.21453 -128.78193) rotate(90)" fill="none" stroke="#566956" stroke-linecap="square" stroke-miterlimit="10" stroke-width=".6"/><path d="M324.4281,200.04306h-5.09916c-.78277,0-1.41732-.63456-1.41732-1.41732v-6.31181c0-.78277.63456-1.41732,1.41732-1.41732h11.33858c.78277,0,1.41732.63456,1.41732,1.41732v6.31181c0,.78277-.63456,1.41732-1.41732,1.41732h-5.11563" fill="none" stroke="#566956" stroke-linecap="square" stroke-miterlimit="10" stroke-width=".6"/><path d="M324.48016,197.74653c0-.27612.22386-.49998.50002-.49998.27612,0,.49998.22386.49998.49998v3.28946c0,.27612-.22386.49998-.50002.49998-.27612,0-.49998-.22386-.49998-.49998v-3.2894s0-.00006,0-.00006Z" fill="none" stroke="#566956" stroke-linecap="square" stroke-miterlimit="10" stroke-width=".6"/><line x1="32.93405" y1="27.9126" x2="140.3658" y2="27.9126" fill="none" stroke="#566956" stroke-linecap="square" stroke-miterlimit="10" stroke-width=".6"/><g id="ARC"><path d="M50.67127,46.87423l-2.21816-6.03265c-2.11553-1.0923-4.58772-1.26441-6.8342-.4758-2.22249.8546-3.99446,2.5875-4.8984,4.79039l2.21793,6.03203" fill="none" stroke="#566956" stroke-linecap="round" stroke-miterlimit="10" stroke-width=".6"/></g><g id="ELLIPSE"><path d="M48.90691,42.07576c-2.10993-.19713-4.29843.08359-6.35932.81571-2.02321.76359-3.85655,1.95727-5.37339,3.49859" fill="none" stroke="#566956" stroke-linecap="round" stroke-miterlimit="10" stroke-width=".6"/></g><g id="ARC-2"><path d="M35.21967,56.74088l-6.42284.24541c-1.69257,1.67445-2.62021,3.97246-2.5644,6.35268.12599,2.37781,1.2265,4.59854,3.04224,6.13897l6.42218-.24538" fill="none" stroke="#566956" stroke-linecap="round" stroke-miterlimit="10" stroke-width=".6"/></g><g id="ELLIPSE-2"><path d="M30.11084,56.93608c-.83949,1.94574-1.24879,4.11388-1.18935,6.30014.10101,2.16015.66973,4.27263,1.66688,6.19152" fill="none" stroke="#566956" stroke-linecap="round" stroke-miterlimit="10" stroke-width=".6"/></g><g id="ARC-3"><path d="M39.82861,74.48519l-1.75137,6.18432c1.06946,2.12716,2.96834,3.71953,5.24931,4.40198,2.30036.61496,4.75249.25455,6.77861-.9963l1.75119-6.18368" fill="none" stroke="#566956" stroke-linecap="round" stroke-miterlimit="10" stroke-width=".6"/></g><g id="ELLIPSE-3"><path d="M38.43554,79.4043c1.59109,1.39967,3.52664,2.45893,5.62426,3.07799,2.08564.57146,4.27047.68336,6.40358.32799" fill="none" stroke="#566956" stroke-linecap="round" stroke-miterlimit="10" stroke-width=".6"/></g><g id="ARC-4"><path d="M58.12869,75.58512l5.34043,3.57671c2.35354-.35979,4.45475-1.67366,5.80866-3.63211,1.29571-1.99774,1.71069-4.44122,1.14717-6.75472l-5.33988-3.57635" fill="none" stroke="#566956" stroke-linecap="round" stroke-miterlimit="10" stroke-width=".6"/></g><g id="ELLIPSE-4"><path d="M62.37656,78.4301c1.82284-1.0807,3.42837-2.59418,4.66534-4.39784,1.18798-1.80697,1.96956-3.85029,2.29075-5.98881" fill="none" stroke="#566956" stroke-linecap="round" stroke-miterlimit="10" stroke-width=".6"/></g><g id="ARC-5"><path d="M64.82982,58.52061l5.05194-3.97379c.3851-2.34953-.21515-4.75391-1.65937-6.64674-1.49957-1.84963-3.69522-2.99938-6.06962-3.17834l-5.05142,3.97338" fill="none" stroke="#566956" stroke-linecap="round" stroke-miterlimit="10" stroke-width=".6"/></g><g id="ELLIPSE-5"><path d="M68.84822,55.35979c-.46452-2.06758-1.40778-4.06222-2.74092-5.79601-1.35142-1.68822-3.05321-3.06297-4.98782-4.02928" fill="none" stroke="#566956" stroke-linecap="round" stroke-miterlimit="10" stroke-width=".6"/></g><circle cx="49.73561" cy="62.44121" r="15.59055" fill="none" stroke="#566956" stroke-linecap="square" stroke-miterlimit="10" stroke-width=".6"/><line x1="140.3658" y1="10.90157" x2="123.35756" y2="27.9126" fill="none" stroke="#566956" stroke-linecap="square" stroke-miterlimit="10" stroke-width=".6"/><line x1="2.31942" y1="168.02595" x2="2.31942" y2="54.64015" fill="none" stroke="#566956" stroke-linecap="square" stroke-miterlimit="10" stroke-width=".6"/><line x1="63.40573" y1="190.13618" x2="93.16989" y2="190.13618" fill="none" stroke="#566956" stroke-linecap="square" stroke-miterlimit="10" stroke-width=".6"/><line x1="21.5951" y1="190.13618" x2="50.65058" y2="190.13618" fill="none" stroke="#566956" stroke-linecap="square" stroke-miterlimit="10" stroke-width=".6"/><path d="M317.88964,228.33775h.24415c.3346,0,.60625.27165.60625.60625v32.80325c0,.3346-.27165.60625-.60625.60625h-.24415c-.3129,0-.56693-.25403-.56693-.56693v-32.88189c0-.3129.25403-.56693.56693-.56693Z" transform="translate(72.68575 563.37699) rotate(-90)" fill="none" stroke="#566956" stroke-miterlimit="10" stroke-width=".6"/><g id="LINE-4"><path d="M301.0235,188.51097c0-.31311.29025-.56693.64829-.56693h32.71917c.35804,0,.64829.25382.64829.56693v55.55906c0,.31311-.29025.56693-.64829.56693h-32.71917c-.35804,0-.64829-.25382-.64829-.56693v-55.55906Z" fill="none" stroke="#566956" stroke-linejoin="round" stroke-width=".6"/></g><path d="M324.76696,231.84891c-.22041,1.65366-.33073,3.31146-.33085,4.96926s.10998,3.31559.33039,4.96924c.0189.14183-.04199.26965-.14768.3552s-.25617.12883-.41645.10156c-3.15837-.53729-6.34031-.09755-9.52224-.09771s-6.36384-.4402-9.52214.0976c-.16029.02729-.31079-.01597-.4165-.10152s-.16662-.21338-.14771-.35522c.22042-1.65366.33073-3.31145.33084-4.96924.0001-1.65779-.11001-3.31557-.33042-4.96922-.0189-.14183.04199-.26965.14768-.3552s.25617-.12883.41645-.10157c3.15837.53727,6.34032.09753,9.52226.09768s6.36386.44019,9.52216-.09761c.16029-.02729.31079.01597.4165.10151s.16662.21338.14772.35522Z" fill="none" stroke="#566956" stroke-linejoin="round" stroke-width=".6"/><path d="M318.99813,231.62881c.56356-.07889,1.12787-.15187,1.69364-.21087,3.16478-.33,6.37518-.22249,9.46064-1.08508.15659-.04378.31077-.01637.42479.05775s.18786.19494.18378.33797c-.04764,1.66761.01465,3.3279.18654,4.97676s.4534,3.28628.8442,4.90813c.03352.1391-.01379.27255-.11003.36861s-.24142.15471-.40366.14423c-2.20113-.1423-4.36532.17718-6.5329.49774" fill="none" stroke="#566956" stroke-linejoin="round" stroke-width=".6"/><g id="LWPOLYLINE-46"><line x1="335.03925" y1="234.56049" x2="330.84597" y2="234.56049" fill="none" stroke="#566956" stroke-linecap="round" stroke-miterlimit="10" stroke-width=".6"/><line x1="315.17261" y1="231.49312" x2="301.0235" y2="223.47217" fill="none" stroke="#566956" stroke-linecap="round" stroke-miterlimit="10" stroke-width=".6"/></g><g id="LINE-5"><line x1="318.6278" y1="227.48821" x2="335.03925" y2="227.48821" fill="none" stroke="#566956" stroke-linecap="round" stroke-miterlimit="10" stroke-width=".6"/></g><g id="ARC-6"><path d="M302.77088,223.90565c-.57966-.15199-1.16219-.2965-1.74738-.43348" fill="none" stroke="#566956" stroke-linecap="round" stroke-miterlimit="10" stroke-width=".6"/></g><g id="ARC-7"><path d="M303.82909,224.12888c-.35029-.08199-.70314-.15643-1.0582-.22323" fill="none" stroke="#566956" stroke-linecap="round" stroke-miterlimit="10" stroke-width=".6"/></g><g id="ARC-8"><path d="M303.82909,224.12888c1.15808.17986,2.61596.37926,3.9392.58883,1.01426.16063,2.05141.15888,3.06272-.0168.39423-.06849.77061-.13557,1.05033-.18931,1.02409-.14042,2.04483-.29679,3.06167-.46903,1.24355-.13769,2.48438-.29142,3.72203-.46112l.04413,2.69682c.0074.45215-.02803.90404-.10588,1.35053l-.16638.95417c-.07783.44634-.09488.90858.0358,1.34434.15016.50075.1698,1.17172.11332,1.68654" fill="none" stroke="#566956" stroke-linecap="round" stroke-linejoin="round" stroke-width=".6"/></g><path d="M165.44804,131.172c-1.65366.19275-3.31146.28922-4.96926.28932s-3.31559-.09617-4.96924-.28892c-.14183-.01653-.26965.03672-.3552.12915s-.12883.22402-.10156.36418c.53729,2.76199.09755,5.54459.09771,8.32718.00015,2.78259.4402,5.56517-.0976,8.32709-.02729.14017.01597.27179.10152.36423s.21338.14571.35522.12918c1.65366-.19276,3.31145-.28923,4.96924-.28932s3.31557.0962,4.96922.28895c.14183.01653.26965-.03672.3552-.12915s.12883-.22402.10157-.36418c-.53727-2.76199-.09753-5.5446-.09768-8.3272-.00015-2.7826-.44019-5.56518.09761-8.32711.02729-.14017-.01597-.27179-.10151-.36423s-.21338-.14571-.35522-.12918Z" fill="none" stroke="#566956" stroke-linejoin="round" stroke-width=".6"/><path d="M165.94893,111.78257c-1.66203.09697-3.32264.09759-4.97767.00199s-3.3045-.28741-4.94427-.57529c-.14064-.02469-.27132.02109-.36206.10843s-.14155.21621-.12242.35771c.37696,2.7884-.22267,5.54098-.38315,8.31894-.16047,2.77796.11821,5.5813-.57813,8.30757-.03534.13836.00025.27226.08032.36948s.20461.15778.34717.14947c1.66203-.09698,3.32263-.09759,4.97765-.00198s3.30449.28743,4.94425.57532c.14064.02469.27132-.02109.36206-.10843s.14155-.21621.12242-.35771c-.37694-2.7884.2227-5.54099.38317-8.31895s-.1182-5.58131.57813-8.30759c.03534-.13836-.00025-.27226-.08032-.36948s-.20461-.15778-.34717-.14947Z" fill="none" stroke="#566956" stroke-linejoin="round" stroke-width=".6"/><rect x="153.39666" y="94.26217" width="11.25591" height="12.00787" fill="none" stroke="#566956" stroke-miterlimit="10" stroke-width=".6"/><rect x="153.39666" y="154.02438" width="11.25591" height="12.00787" fill="none" stroke="#566956" stroke-miterlimit="10" stroke-width=".6"/><path d="M177.61154,107.47005h32.12843c.31311,0,.56693.25382.56693.56693v44.22047c0,.31311-.25382.56693-.56693.56693h-57.54331s0-45.35433,0-45.35433h25.41488" fill="none" stroke="#566956" stroke-miterlimit="10" stroke-width=".6"/><rect x="150.77934" y="93.06217" width="1.41732" height="74.17008" fill="none" stroke="#566956" stroke-miterlimit="10" stroke-width=".6"/><g id="LWPOLYLINE-47"><line x1="161.98611" y1="152.82438" x2="161.98611" y2="148.55061" fill="none" stroke="#566956" stroke-linecap="round" stroke-miterlimit="10" stroke-width=".6"/><line x1="161.98611" y1="131.43464" x2="161.98611" y2="128.98154" fill="none" stroke="#566956" stroke-linecap="round" stroke-miterlimit="10" stroke-width=".6"/><line x1="165.7999" y1="120.94746" x2="174.10132" y2="107.47005" fill="none" stroke="#566956" stroke-linecap="round" stroke-miterlimit="10" stroke-width=".6"/></g><g id="LINE-6"><line x1="169.71335" y1="125.17257" x2="169.71335" y2="152.82438" fill="none" stroke="#566956" stroke-linecap="round" stroke-miterlimit="10" stroke-width=".6"/></g><g id="ARC-9"><path d="M173.62769,109.22718c.16607-.58289.32396-1.16867.47362-1.75713" fill="none" stroke="#566956" stroke-linecap="round" stroke-miterlimit="10" stroke-width=".6"/></g><g id="ARC-10"><path d="M173.38379,110.29129c.08959-.35224.17092-.70707.24391-1.06411" fill="none" stroke="#566956" stroke-linecap="round" stroke-miterlimit="10" stroke-width=".6"/></g><g id="ARC-11"><path d="M173.38379,110.29129c-.19652,1.16454-.41439,2.63056-.64336,3.96118-.17551,1.01992-.1736,2.06286.01836,3.07981.07483.39643.14812.77491.20684,1.05619.15342,1.02981.32428,2.05624.51247,3.07876.15044,1.25049.31841,2.49824.50382,3.74279l-2.94658.04438c-.49403.00744-.98776-.02819-1.4756-.10647l-1.04253-.16731c-.48767-.07826-.99273-.0954-1.46884.036-.54712.151-1.11345.19945-1.67595.14266" fill="none" stroke="#566956" stroke-linecap="round" stroke-linejoin="round" stroke-width=".6"/></g><polyline points="130.7268 150.75705 130.7268 167.31729 72.86032 167.31729" fill="none" stroke="#566956" stroke-linecap="round" stroke-miterlimit="10" stroke-width=".6"/><polyline points="39.10553 167.31729 29.75209 167.31729 29.75209 93.06217 93.52321 93.06217" fill="none" stroke="#566956" stroke-linecap="round" stroke-miterlimit="10" stroke-width=".6"/><line x1="62.7287" y1="167.31729" x2="55.79142" y2="167.31729" fill="none" stroke="#566956" stroke-linecap="round" stroke-miterlimit="10" stroke-width=".6"/><path d="M135.14542,219.66661c-3.32822-.73746-6.7488-.96748-10.14579-.68225" fill="#fff" stroke="#566956" stroke-linecap="round" stroke-miterlimit="10" stroke-width=".6"/><path d="M135.22011,225.17693c.03885-1.83709.01394-3.67497-.07469-5.51033l.68169-1.90683c-3.68585-.84406-7.48207-1.09933-11.24774-.75635l.42026,1.98093c-.35318,1.91335-.63595,3.83904-.84772,5.77316" fill="none" stroke="#566956" stroke-linecap="round" stroke-miterlimit="10" stroke-width=".6"/><path d="M151.292,241.00245c-.20498-3.40277-.92326-6.75499-2.13049-9.94301" fill="#fff" stroke="#566956" stroke-linecap="round" stroke-miterlimit="10" stroke-width=".6"/><path d="M146.01409,242.58766c1.77711-.4672,3.53748-.99591,5.27792-1.5852l2.02073.13177c-.2007-3.77593-.99786-7.49628-2.36189-11.02294l-1.78933.94816c-1.93678.18589-3.86607.44288-5.78398.77045" fill="none" stroke="#566956" stroke-linecap="round" stroke-miterlimit="10" stroke-width=".6"/><path d="M138.40371,261.19895c3.00478-1.61002,5.74887-3.66509,8.13922-6.09554" fill="#fff" stroke="#566956" stroke-linecap="round" stroke-miterlimit="10" stroke-width=".6"/><path d="M134.75548,257.06862c1.16794,1.41856,2.38475,2.79617,3.64823,4.13034l.72587,1.89046c3.34549-1.76228,6.39092-4.04303,9.02324-6.75758l-1.60988-1.22841c-.97926-1.68129-2.01995-3.32602-3.11999-4.93089" fill="none" stroke="#566956" stroke-linecap="round" stroke-miterlimit="10" stroke-width=".6"/><path d="M111.66168,254.82825c2.2693,2.54384,4.91018,4.72996,7.83309,6.48423" fill="#fff" stroke="#566956" stroke-linecap="round" stroke-miterlimit="10" stroke-width=".6"/><path d="M114.82213,250.31373c-1.10538,1.46783-2.1595,2.97358-3.16044,4.51452l-1.66773,1.14865c2.49716,2.83938,5.42805,5.26557,8.68385,7.18849l.81696-1.85291c1.405-1.34597,2.76008-2.7431,4.06249-4.18858" fill="none" stroke="#566956" stroke-linecap="round" stroke-miterlimit="10" stroke-width=".6"/><path d="M110.24462,229.25366c-1.63568,2.99089-2.80976,6.21189-3.48242,9.55381" fill="#fff" stroke="#566956" stroke-linecap="round" stroke-miterlimit="10" stroke-width=".6"/><path d="M115.5575,230.71742c-1.7535-.54922-3.52552-1.03744-5.31288-1.46376l-1.64135-1.18604c-1.83771,3.30465-3.14072,6.87938-3.86065,10.59146l2.01958.14839c1.73915.87236,3.50977,1.68053,5.30826,2.42288" fill="none" stroke="#566956" stroke-linecap="round" stroke-miterlimit="10" stroke-width=".6"/><g id="CIRCLE"><path d="M112.06921,241.03666c0-9.39319,7.61468-17.00787,17.00787-17.00787s17.00787,7.61468,17.00787,17.00787-7.61468,17.00787-17.00787,17.00787-17.00787-7.61468-17.00787-17.00787h0Z" fill="none" stroke="#805951" stroke-linecap="round" stroke-linejoin="round" stroke-width=".5"/><path d="M112.06921,241.03666c0-9.39319,7.61468-17.00787,17.00787-17.00787s17.00787,7.61468,17.00787,17.00787-7.61468,17.00787-17.00787,17.00787-17.00787-7.61468-17.00787-17.00787h0Z" fill="none" stroke="#566956" stroke-linecap="round" stroke-miterlimit="10" stroke-width=".6"/></g><path d="M193.09117,182.62441l18.03957-18.03957c4.61673,4.61673,7.47224,10.99468,7.47224,18.03957" fill="none" stroke="#566956" stroke-miterlimit="10" stroke-width=".6"/><path d="M108.0518,186.02598l18.03957,18.03957c4.61673-4.61673,7.47224-10.99468,7.47224-18.03957" fill="none" stroke="#566956" stroke-miterlimit="10" stroke-width=".6"/><path d="M233.20139,245.83698l18.03957-18.03957c-4.61673-4.61673-10.99468-7.47224-18.03957-7.47224" fill="none" stroke="#566956" stroke-miterlimit="10" stroke-width=".6"/><line x1="96.71321" y1="268.74091" x2="96.71321" y2="190.13618" fill="none" stroke="#566956" stroke-linecap="square" stroke-miterlimit="10" stroke-width=".6"/><polygon points="237.31162 84.68739 239.9195 84.68739 239.9195 61.58504 146.60296 61.58504 146.60296 175.96296 134.98093 175.96296 134.98093 189.42831 135.68957 189.42756 135.68883 190.13618 142.06753 189.42756 148.43875 190.13618 148.44548 189.42756 149.15414 189.42724 149.15414 183.19135 149.57934 183.19132 149.57934 64.56142 237.31162 64.56142 237.31162 84.68739" fill="#566956" stroke="#566956" stroke-linecap="square" stroke-miterlimit="10" stroke-width=".6"/><polygon points="178.20926 189.42756 178.20852 190.13618 184.58721 189.42756 190.96516 190.13618 190.96517 189.42756 191.67387 189.42831 191.67387 175.96296 177.50065 175.96296 177.50065 189.42757 178.20926 189.42756" fill="#566956" stroke="#566956" stroke-linecap="square" stroke-miterlimit="10" stroke-width=".6"/><polygon points="1.04386 138.97083 1.04386 139.67951 15.92582 139.67951 15.92582 82.98658 1.04386 82.98658 1.04386 83.69526 .33518 83.69526 1.04386 90.07319 .33518 96.45118 1.04386 96.45118 1.04386 97.1598 2.31943 97.1598 2.31943 125.5063 1.04386 125.5063 1.04386 126.21491 .33518 126.21491 1.04386 132.5929 .33518 138.97083 1.04386 138.97083" fill="#566956" stroke="#566956" stroke-linecap="square" stroke-miterlimit="10" stroke-width=".6"/><polygon points="15.92582 168.02595 1.04386 168.02595 1.04386 168.73463 .33518 168.73463 1.04386 175.11256 .33518 181.49055 1.04386 181.49055 1.04386 182.19917 1.04386 182.90785 .33518 182.90785 1.01962 189.5036 6.7132 190.13622 6.7132 189.42756 8.13052 189.42756 8.13052 190.13622 14.50847 189.42756 20.88643 190.13622 20.88643 189.42756 21.59509 189.42756 21.59513 175.96296 15.92582 175.96296 15.92582 168.02595" fill="#566956" stroke="#566956" stroke-linecap="square" stroke-miterlimit="10" stroke-width=".6"/><polygon points="50.6502 189.42756 50.65058 190.13618 57.02816 189.42756 63.40573 190.13618 63.40611 189.42756 64.11478 189.42756 64.11478 175.96296 49.94157 175.96296 49.94157 189.42756 50.6502 189.42756" fill="#566956" stroke="#566956" stroke-linecap="square" stroke-miterlimit="10" stroke-width=".6"/><polygon points="93.16989 189.42756 93.16989 190.13618 99.54784 189.42756 105.91907 190.13618 105.9258 189.42756 106.6345 189.42831 106.6345 175.96296 92.46128 175.96296 92.46128 189.42831 93.16989 189.42756" fill="#566956" stroke="#566956" stroke-linecap="square" stroke-miterlimit="10" stroke-width=".6"/><polygon points="226.39824 218.19921 226.39824 218.90785 240.288 218.90787 240.288 175.96296 240.288 142.37238 244.11478 142.37238 244.11478 139.76457 239.9195 139.76457 239.9195 110.19917 237.31162 110.19917 237.31162 175.96296 220.0203 175.96296 220.02028 189.42756 220.72894 189.42756 220.72894 190.13618 226.39824 189.51614 226.39824 191.27008 225.68949 191.27007 226.39824 197.64803 225.68949 204.02599 226.39824 204.02598 226.39824 205.44331 225.68949 205.4433 226.39824 211.82126 225.68949 218.19922 226.39824 218.19921" fill="#566956" stroke="#566956" stroke-linecap="square" stroke-miterlimit="10" stroke-width=".6"/><path d="M329.77776,142.74094h6.463v104.51334h-109.84253v.70871s-.70874-.00074-.70874-.00074l.70875,6.3787-.70875,6.3787.70875-.00075-.00074.70866h-.708v7.31336h14.17334v-15.81732h102.04724V57.19129h-5.66931v4.39375h-62.30552v33.30707h2.60787v-2.46613h.4252v-27.80787h41.47087v27.80787h17.80158v46.99843h-6.463v3.31654ZM311.35257,139.42441h-34.80945v-21.85511h-2.60787v22.19527h-4.30862v2.60782h38.38106v19.84258h28.23307v-3.34488h-24.88819v-19.44567ZM336.24076,87.80549h-12.75592v-21.54333h12.75592v21.54333Z" fill="#566956" stroke="#566956" stroke-linecap="square" stroke-miterlimit="10" stroke-width=".6"/><path d="M277.56364.49842v19.84247h-76.30871V.3H.53989l.50397,4.73382-.55084,4.95746-.15784,1.42047h.70868v.70868h1.27557v28.3465h-1.27557v.70862H.33518l.70868,6.37799-.70868,6.37793h.70868v.70868h14.88196V10.90157h158.45673v17.51811h113.89601V8.15193h47.96221v20.69293h5.66931V.49842h-64.34644ZM190.54002,23.14253v.59998h-11.90552v-14.31494h11.90552v13.71497Z" fill="#566956" stroke="#566956" stroke-linecap="square" stroke-miterlimit="10" stroke-width=".6"/><g id="LWPOLYLINE-48"><path d="M329.77776,140.13307l-13.02858-13.02858c-3.59774,3.59774-5.39661,8.31316-5.39662,13.02857" fill="none" stroke="#566956" stroke-linecap="round" stroke-miterlimit="10" stroke-width=".6"/></g></g><g id="_3_txt"><path d="M37.6049,105.37837h4.3457v1.21094h-3.02539v1.87012h2.14502v1.20996h-2.14502v1.98047h3.13525v1.20996h-4.45557v-7.48145Z" fill="#566956" stroke-width="0"/><path d="M47.69816,111.64985v1.20996h-4.23584v-7.48145h1.32031v6.27148h2.91553Z" fill="#566956" stroke-width="0"/><path d="M49.97892,110.27485c0,.93457.66016,1.59473,1.43018,1.59473.77051,0,1.43018-.66016,1.43018-1.59473v-4.89648h1.32031v4.89648c0,1.59473-1.20996,2.80469-2.75049,2.80469-1.54004,0-2.75-1.20996-2.75-2.80469v-4.89648h1.31982v4.89648Z" fill="#566956" stroke-width="0"/><path d="M58.46232,106.5893v6.27051h-1.32031v-6.27051h-1.92529v-1.21094h5.1709v1.21094h-1.92529Z" fill="#566956" stroke-width="0"/><path d="M62.75968,110.27485c0,.93457.66016,1.59473,1.43018,1.59473s1.43018-.66016,1.43018-1.59473v-4.89648h1.32031v4.89648c0,1.59473-1.20996,2.80469-2.75049,2.80469-1.54004,0-2.75049-1.20996-2.75049-2.80469v-4.89648h1.32031v4.89648Z" fill="#566956" stroke-width="0"/><path d="M68.76847,105.37837h2.36523c1.54053,0,2.42041.88086,2.42041,1.87109,0,1.20996-1.20996,1.48438-1.20996,1.48438v.11035s1.6499.27539,1.6499,1.87012c0,1.10059-1.04492,2.14551-2.75,2.14551h-2.47559v-7.48145ZM71.1337,108.23872c.66016,0,1.04541-.38477,1.04541-.82422,0-.44043-.38525-.8252-1.04541-.8252h-1.04492v1.64941h1.04492ZM71.24406,111.64985c.8252,0,1.31982-.47363,1.31982-1.10059s-.49463-1.09961-1.31982-1.09961h-1.15527v2.2002h1.15527Z" fill="#566956" stroke-width="0"/><path d="M81.07609,112.85981h-1.43018l-.43994-1.10059h-2.87158l-.42871,1.10059h-1.43018l3.24512-7.9209h.11035l3.24512,7.9209ZM76.84074,110.54926h1.87012l-.87988-2.31055h-.11035l-.87988,2.31055Z" fill="#566956" stroke-width="0"/><path d="M45.93839,116.98383c-1.04541,0-1.65039,1.15527-1.65039,1.15527l-.60498-.38477s.77002-1.48535,2.25537-1.48535c1.32031,0,2.36523,1.04492,2.36523,2.2002,0,2.14551-3.24561,4.62012-3.24561,4.62012v.05566h3.24561v.71484h-4.62061v-.49512s3.85059-2.75,3.85059-4.89551c0-.8252-.66016-1.48535-1.59521-1.48535Z" fill="#566956" stroke-width="0"/><path d="M52.79386,120.94477h-.05518s-.43994.38477-.99023.38477c-1.26514,0-2.36523-1.10059-2.36523-2.53027,0-1.43066,1.1001-2.53027,2.47559-2.53027,1.375,0,2.4751,1.09961,2.4751,2.53027,0,1.20996-.77002,2.14551-.77002,2.14551l-2.03516,2.91504h-.8252l2.09033-2.91504ZM51.8588,120.61469c.93506,0,1.70508-.77051,1.70508-1.81543s-.77002-1.81543-1.70508-1.81543-1.70557.77051-1.70557,1.81543.77051,1.81543,1.70557,1.81543Z" fill="#566956" stroke-width="0"/><path d="M55.50284,123.85981l-.60498.99023h-.27539l.43994-.87988s-.32959-.11035-.32959-.44043c0-.21973.21973-.44043.43994-.44043.21973,0,.43994.2207.43994.44043,0,.16504-.10986.33008-.10986.33008Z" fill="#566956" stroke-width="0"/><path d="M59.54191,120.94477h-.05518s-.43994.38477-.99023.38477c-1.26514,0-2.36523-1.10059-2.36523-2.53027,0-1.43066,1.1001-2.53027,2.47559-2.53027,1.375,0,2.4751,1.09961,2.4751,2.53027,0,1.20996-.77002,2.14551-.77002,2.14551l-2.03516,2.91504h-.8252l2.09033-2.91504ZM58.60685,120.61469c.93506,0,1.70508-.77051,1.70508-1.81543s-.77002-1.81543-1.70508-1.81543-1.70557.77051-1.70557,1.81543.77051,1.81543,1.70557,1.81543Z" fill="#566956" stroke-width="0"/><path d="M67.40665,120.99946c0-.66016-.5498-1.10059-1.1001-1.10059-.60498,0-1.15527.44043-1.15527,1.21094v2.75h-.66016v-4.40039h.66016v.66016h.05518s.38525-.88086,1.20996-.88086c.93555,0,1.37549.99023,1.37549.99023h.05518s.43994-.99023,1.48486-.99023c.88037,0,1.65039.77051,1.65039,1.76074v2.86035h-.66016v-2.86035c0-.60547-.49512-1.10059-1.1001-1.10059-.66016,0-1.15527.49512-1.15527,1.10059v2.86035h-.66016v-2.86035Z" fill="#566956" stroke-width="0"/><path d="M72.02775,119.34907v-.44043s1.54004-.76953,1.54004-1.54004c0-.27441-.22021-.49512-.55029-.49512-.38477,0-.65967.33008-.65967.33008l-.38525-.43945s.43994-.49512,1.04492-.49512c.66016,0,1.21045.5498,1.21045,1.09961,0,.88086-1.1001,1.375-1.1001,1.375v.05566h1.15527v.5498h-2.25537Z" fill="#566956" stroke-width="0"/><path d="M180.46281,121.73921v6.27051h-1.32031v-6.27051h-1.92529v-1.21094h5.1709v1.21094h-1.92529Z" fill="#566956" stroke-width="0"/><path d="M184.76017,125.42475c0,.93457.66016,1.59473,1.43018,1.59473.77051,0,1.43018-.66016,1.43018-1.59473v-4.89648h1.32031v4.89648c0,1.59473-1.20996,2.80469-2.75049,2.80469-1.54004,0-2.75-1.20996-2.75-2.80469v-4.89648h1.31982v4.89648Z" fill="#566956" stroke-width="0"/><path d="M190.76896,120.52827h2.36523c1.54053,0,2.42041.88086,2.42041,1.87109,0,1.20996-1.20996,1.48438-1.20996,1.48438v.11035s1.65039.27539,1.65039,1.87012c0,1.10059-1.04541,2.14551-2.75049,2.14551h-2.47559v-7.48145ZM193.13419,123.38862c.66016,0,1.04541-.38477,1.04541-.82422,0-.44043-.38525-.8252-1.04541-.8252h-1.04492v1.64941h1.04492ZM193.24454,126.79975c.8252,0,1.31982-.47363,1.31982-1.10059s-.49463-1.09961-1.31982-1.09961h-1.15527v2.2002h1.15527Z" fill="#566956" stroke-width="0"/><path d="M203.07658,128.00971h-1.43018l-.43994-1.10059h-2.87158l-.42871,1.10059h-1.43018l3.24512-7.9209h.11035l3.24512,7.9209ZM198.84122,125.69917h1.87012l-.87988-2.31055h-.11035l-.87988,2.31055Z" fill="#566956" stroke-width="0"/><path d="M175.32218,139.00971v-.71484h1.10059v-5.7207h-.05518l-1.26514.76953-.33008-.5498,2.31055-1.375h.05469v6.87598h1.1001v.71484h-2.91553Z" fill="#566956" stroke-width="0"/><path d="M181.45646,132.13374c-1.04541,0-1.65039,1.15527-1.65039,1.15527l-.60498-.38477s.77002-1.48535,2.25537-1.48535c1.32031,0,2.36523,1.04492,2.36523,2.2002,0,2.14551-3.24561,4.62012-3.24561,4.62012v.05566h3.24561v.71484h-4.62061v-.49512s3.85059-2.75,3.85059-4.89551c0-.8252-.66016-1.48535-1.59521-1.48535Z" fill="#566956" stroke-width="0"/><path d="M185.74845,139.00971l-.60498.99023h-.27539l.44043-.87988s-.33008-.11035-.33008-.44043c0-.21973.21973-.44043.43994-.44043.21973,0,.43994.2207.43994.44043,0,.16504-.10986.33008-.10986.33008Z" fill="#566956" stroke-width="0"/><path d="M191.93595,133.28901c0,1.32031-1.26514,1.70508-1.26514,1.70508v.05469s1.59521.38574,1.59521,2.03613c0,1.09961-1.04492,2.14453-2.58545,2.14453-1.54004,0-2.58496-1.04492-2.58496-2.14453,0-1.65039,1.59521-2.03613,1.59521-2.03613v-.05469s-1.26514-.38477-1.26514-1.70508c0-.99023.87988-1.87012,2.25488-1.87012,1.37549,0,2.25537.87988,2.25537,1.87012ZM187.86564,136.97456c0,.76953.77002,1.54004,1.81494,1.54004,1.04541,0,1.81543-.77051,1.81543-1.54004,0-.77051-.77002-1.54004-1.81543-1.54004-1.04492,0-1.81494.76953-1.81494,1.54004ZM188.19572,133.39936c0,.65918.5498,1.26465,1.48486,1.26465.93555,0,1.48535-.60547,1.48535-1.26465,0-.66016-.5498-1.26562-1.48535-1.26562-.93506,0-1.48486.60547-1.48486,1.26562Z" fill="#566956" stroke-width="0"/><path d="M198.59074,136.14936c0-.66016-.5498-1.10059-1.1001-1.10059-.60498,0-1.15527.44043-1.15527,1.21094v2.75h-.65967v-4.40039h.65967v.66016h.05518s.38525-.88086,1.20996-.88086c.93555,0,1.37549.99023,1.37549.99023h.05518s.43994-.99023,1.48486-.99023c.88037,0,1.65039.77051,1.65039,1.76074v2.86035h-.66016v-2.86035c0-.60547-.49512-1.10059-1.1001-1.10059-.66016,0-1.15527.49512-1.15527,1.10059v2.86035h-.66016v-2.86035Z" fill="#566956" stroke-width="0"/><path d="M203.21134,134.49897v-.44043s1.54004-.76953,1.54004-1.54004c0-.27441-.22021-.49512-.55029-.49512-.38477,0-.65967.33008-.65967.33008l-.38525-.43945s.43994-.49512,1.04492-.49512c.66016,0,1.21045.5498,1.21045,1.09961,0,.88086-1.1001,1.375-1.1001,1.375v.05566h1.15527v.5498h-2.25537Z" fill="#566956" stroke-width="0"/><path d="M163.21232,223.06538v6.27051h-1.32031v-6.27051h-1.92578v-1.21094h5.1709v1.21094h-1.9248Z" fill="#566956" stroke-width="0"/><path d="M166.21622,221.85444h4.3457v1.21094h-3.02539v1.87012h2.14551v1.20996h-2.14551v1.98047h3.13574v1.20996h-4.45605v-7.48145Z" fill="#566956" stroke-width="0"/><path d="M176.09025,226.3105l1.70508,3.02539h-1.43066l-1.54004-2.75h-1.42969v2.75h-1.32031v-7.48145h2.53027c1.65039,0,2.75,1.10059,2.75,2.36523,0,1.37598-1.26465,1.99219-1.26465,1.98047v.11035ZM174.6049,225.37495c.83594,0,1.375-.5498,1.375-1.15527,0-.60449-.5498-1.1543-1.375-1.1543h-1.20996v2.30957h1.20996Z" fill="#566956" stroke-width="0"/><path d="M182.95646,226.3105l1.70508,3.02539h-1.43066l-1.54004-2.75h-1.42969v2.75h-1.32031v-7.48145h2.53027c1.65039,0,2.75,1.10059,2.75,2.36523,0,1.37598-1.26465,1.99219-1.26465,1.98047v.11035ZM181.47111,225.37495c.83594,0,1.375-.5498,1.375-1.15527,0-.60449-.5498-1.1543-1.375-1.1543h-1.20996v2.30957h1.20996Z" fill="#566956" stroke-width="0"/><path d="M191.95548,229.33589h-1.43066l-.43945-1.10059h-2.87207l-.42871,1.10059h-1.42969l3.24512-7.9209h.11035l3.24512,7.9209ZM187.72013,227.02534h1.87012l-.87988-2.31055h-.11035l-.87988,2.31055Z" fill="#566956" stroke-width="0"/><path d="M197.6254,222.90034l-.99023.71484s-.5498-.77051-1.20996-.77051-1.09961.44043-1.09961.99023c0,1.32031,3.41016,1.10059,3.41016,3.46582,0,1.15527-1.10059,2.25488-2.58594,2.25488-1.87012,0-2.69531-1.54004-2.69531-1.54004l.99023-.71484s.60547,1.04492,1.5957,1.04492c.76953,0,1.32031-.5498,1.32031-1.15527,0-1.32031-3.41113-1.09961-3.41113-3.46484,0-1.0459,1.0459-2.09082,2.36523-2.09082,1.54102,0,2.31055,1.26562,2.31055,1.26562Z" fill="#566956" stroke-width="0"/><path d="M203.7006,222.90034l-.99023.71484s-.5498-.77051-1.20996-.77051-1.09961.44043-1.09961.99023c0,1.32031,3.41016,1.10059,3.41016,3.46582,0,1.15527-1.10059,2.25488-2.58594,2.25488-1.87012,0-2.69531-1.54004-2.69531-1.54004l.99023-.71484s.60547,1.04492,1.5957,1.04492c.76953,0,1.32031-.5498,1.32031-1.15527,0-1.32031-3.41113-1.09961-3.41113-3.46484,0-1.0459,1.0459-2.09082,2.36523-2.09082,1.54102,0,2.31055,1.26562,2.31055,1.26562Z" fill="#566956" stroke-width="0"/><path d="M168.2631,240.33589v-.71484h1.10059v-5.7207h-.05566l-1.26465.76953-.33008-.5498,2.31055-1.375h.05469v6.87598h1.09961v.71484h-2.91504Z" fill="#566956" stroke-width="0"/><path d="M174.39689,233.45991c-1.04492,0-1.65039,1.15527-1.65039,1.15527l-.60449-.38477s.76953-1.48535,2.25488-1.48535c1.32031,0,2.36523,1.04492,2.36523,2.2002,0,2.14551-3.24512,4.62012-3.24512,4.62012v.05566h3.24512v.71484h-4.62012v-.49512s3.85059-2.75,3.85059-4.89551c0-.8252-.66016-1.48535-1.5957-1.48535Z" fill="#566956" stroke-width="0"/><path d="M178.68888,240.33589l-.60449.99023h-.27539l.44043-.87988s-.33008-.11035-.33008-.44043c0-.21973.21973-.44043.43945-.44043s.44043.2207.44043.44043c0,.16504-.11035.33008-.11035.33008Z" fill="#566956" stroke-width="0"/><path d="M180.22306,240.33589v-.71484h1.10059v-5.7207h-.05566l-1.26465.76953-.33008-.5498,2.31055-1.375h.05469v6.87598h1.09961v.71484h-2.91504Z" fill="#566956" stroke-width="0"/><path d="M189.35294,237.47553c0-.66016-.5498-1.10059-1.09961-1.10059-.60547,0-1.15527.44043-1.15527,1.21094v2.75h-.66016v-4.40039h.66016v.66016h.05469s.38574-.88086,1.20996-.88086c.93555,0,1.37598.99023,1.37598.99023h.05469s.44043-.99023,1.48535-.99023c.87988,0,1.65039.77051,1.65039,1.76074v2.86035h-.66016v-2.86035c0-.60547-.49512-1.10059-1.10059-1.10059-.66016,0-1.15527.49512-1.15527,1.10059v2.86035h-.66016v-2.86035Z" fill="#566956" stroke-width="0"/><path d="M193.97404,235.82514v-.44043s1.54004-.76953,1.54004-1.54004c0-.27441-.21973-.49512-.5498-.49512-.38477,0-.66016.33008-.66016.33008l-.38477-.43945s.43945-.49512,1.04492-.49512c.66016,0,1.20996.5498,1.20996,1.09961,0,.88086-1.09961,1.375-1.09961,1.375v.05566h1.15527v.5498h-2.25586Z" fill="#566956" stroke-width="0"/><path d="M263.53849,183.09077v6.27051h-1.32031v-6.27051h-1.92529v-1.21094h5.1709v1.21094h-1.92529Z" fill="#566956" stroke-width="0"/><path d="M267.83585,186.77632c0,.93457.66016,1.59473,1.43018,1.59473.77051,0,1.43018-.66016,1.43018-1.59473v-4.89648h1.32031v4.89648c0,1.59473-1.20996,2.80469-2.75049,2.80469-1.54004,0-2.75-1.20996-2.75-2.80469v-4.89648h1.31982v4.89648Z" fill="#566956" stroke-width="0"/><path d="M273.84464,181.87983h2.36523c1.54053,0,2.42041.88086,2.42041,1.87109,0,1.20996-1.20996,1.48438-1.20996,1.48438v.11035s1.65039.27539,1.65039,1.87012c0,1.10059-1.04541,2.14551-2.75049,2.14551h-2.47559v-7.48145ZM276.20988,184.74018c.66016,0,1.04541-.38477,1.04541-.82422,0-.44043-.38525-.8252-1.04541-.8252h-1.04492v1.64941h1.04492ZM276.32023,188.15132c.8252,0,1.31982-.47363,1.31982-1.10059s-.49463-1.09961-1.31982-1.09961h-1.15527v2.2002h1.15527Z" fill="#566956" stroke-width="0"/><path d="M286.15226,189.36128h-1.43018l-.43994-1.10059h-2.87158l-.42871,1.10059h-1.43018l3.24512-7.9209h.11035l3.24512,7.9209ZM281.91691,187.05073h1.87012l-.87988-2.31055h-.11035l-.87988,2.31055Z" fill="#566956" stroke-width="0"/><path d="M258.67911,200.36128v-.71484h1.1001v-5.7207h-.05518l-1.26514.76953-.33008-.5498,2.31006-1.375h.05518v6.87598h1.1001v.71484h-2.91504Z" fill="#566956" stroke-width="0"/><path d="M264.8129,193.4853c-1.04541,0-1.65039,1.15527-1.65039,1.15527l-.60498-.38477s.77002-1.48535,2.25537-1.48535c1.32031,0,2.36523,1.04492,2.36523,2.2002,0,2.14551-3.24561,4.62012-3.24561,4.62012v.05566h3.24561v.71484h-4.62061v-.49512s3.85059-2.75,3.85059-4.89551c0-.8252-.66016-1.48535-1.59521-1.48535Z" fill="#566956" stroke-width="0"/><path d="M269.1049,200.36128l-.60498.99023h-.27539l.43994-.87988s-.32959-.11035-.32959-.44043c0-.21973.21973-.44043.43994-.44043.21973,0,.43994.2207.43994.44043,0,.16504-.10986.33008-.10986.33008Z" fill="#566956" stroke-width="0"/><path d="M272.69523,193.4853c-1.04541,0-1.65039,1.15527-1.65039,1.15527l-.60498-.38477s.77002-1.48535,2.25537-1.48535c1.32031,0,2.36523,1.04492,2.36523,2.2002,0,2.14551-3.24561,4.62012-3.24561,4.62012v.05566h3.24561v.71484h-4.62061v-.49512s3.85059-2.75,3.85059-4.89551c0-.8252-.66016-1.48535-1.59521-1.48535Z" fill="#566956" stroke-width="0"/><path d="M281.38517,197.50092c0-.66016-.5498-1.10059-1.1001-1.10059-.60498,0-1.15527.44043-1.15527,1.21094v2.75h-.65967v-4.40039h.65967v.66016h.05518s.38525-.88086,1.20996-.88086c.93555,0,1.37549.99023,1.37549.99023h.05518s.43994-.99023,1.48486-.99023c.88037,0,1.65039.77051,1.65039,1.76074v2.86035h-.66016v-2.86035c0-.60547-.49512-1.10059-1.1001-1.10059-.66016,0-1.15527.49512-1.15527,1.10059v2.86035h-.66016v-2.86035Z" fill="#566956" stroke-width="0"/><path d="M286.00577,195.85053v-.44043s1.54004-.76953,1.54004-1.54004c0-.27441-.22021-.49512-.55029-.49512-.38477,0-.65967.33008-.65967.33008l-.38525-.43945s.43994-.49512,1.04492-.49512c.66016,0,1.21045.5498,1.21045,1.09961,0,.88086-1.1001,1.375-1.1001,1.375v.05566h1.15527v.5498h-2.25537Z" fill="#566956" stroke-width="0"/><path d="M284.91349,100.15473c2.08984,0,3.7959,1.70605,3.7959,3.74121s-1.70605,3.74023-3.7959,3.74023h-2.2002v-7.48145h2.2002ZM284.03361,101.36567v5.06055h.87988c1.26562,0,2.41992-1.15527,2.41992-2.53027,0-1.37598-1.1543-2.53027-2.41992-2.53027h-.87988Z" fill="#566956" stroke-width="0"/><path d="M290.39884,107.63618h-1.42969l2.96973-7.48145h1.43066l-2.9707,7.48145Z" fill="#566956" stroke-width="0"/><path d="M298.66154,103.23579l-1.81543,4.78516h-.11035l-2.69531-7.86621h1.43066l1.375,4.18066h.10938l1.70605-4.51074,1.70508,4.51074h.10938l1.37598-4.18066h1.42969l-2.69531,7.86621h-.11035l-1.81445-4.78516Z" fill="#566956" stroke-width="0"/><path d="M310.78263,101.69575l-1.15527.65918s-.71484-1.20996-2.03516-1.20996-2.53027,1.20996-2.53027,2.75098c0,1.54004,1.20996,2.75,2.53027,2.75,1.42969,0,2.14453-1.375,2.14453-1.375l1.15527.66016s-.99023,1.9248-3.2998,1.9248c-2.14551,0-3.90625-1.75977-3.90625-3.95996s1.76074-3.96094,3.90625-3.96094c2.2002,0,3.19043,1.76074,3.19043,1.76074Z" fill="#566956" stroke-width="0"/><path d="M283.91349,114.95063v-3.68555h4.01562v.71484h-3.30078v2.36523s.55078-.33008,1.26562-.33008c1.42969,0,2.47559,1.0459,2.47559,2.4209s-1.0459,2.41992-2.47559,2.41992c-1.76074,0-2.47559-1.54004-2.47559-1.54004l.60547-.38477s.5498,1.20996,1.87012,1.20996c1.04492,0,1.70508-.66016,1.70508-1.70508s-.66016-1.70508-1.70508-1.70508c-.8252,0-1.48535.5498-1.48535.5498l-.49512-.33008Z" fill="#566956" stroke-width="0"/><path d="M290.30411,118.63618l-.60449.99023h-.27539l.44043-.87988s-.33008-.11035-.33008-.44043c0-.21973.21973-.44043.43945-.44043s.44043.2207.44043.44043c0,.16504-.11035.33008-.11035.33008Z" fill="#566956" stroke-width="0"/><path d="M293.13615,114.18012h.05469s.44043-.38477.99023-.38477c1.26562,0,2.36523,1.10059,2.36523,2.53027,0,1.43066-1.09961,2.53027-2.47559,2.53027-1.375,0-2.47461-1.09961-2.47461-2.53027,0-1.20996.76953-2.14551.76953-2.14551l2.03516-2.91504h.8252l-2.08984,2.91504ZM294.07072,114.5102c-.93457,0-1.70508.77051-1.70508,1.81543s.77051,1.81543,1.70508,1.81543c.93555,0,1.70508-.77051,1.70508-1.81543s-.76953-1.81543-1.70508-1.81543Z" fill="#566956" stroke-width="0"/><path d="M302.76115,115.77583c0-.66016-.5498-1.10059-1.10059-1.10059-.60449,0-1.15527.44043-1.15527,1.21094v2.75h-.65918v-4.40039h.65918v.66016h.05566s.38477-.88086,1.20996-.88086c.93555,0,1.375.99023,1.375.99023h.05566s.43945-.99023,1.48438-.99023c.88086,0,1.65039.77051,1.65039,1.76074v2.86035h-.66016v-2.86035c0-.60547-.49512-1.10059-1.09961-1.10059-.66016,0-1.15527.49512-1.15527,1.10059v2.86035h-.66016v-2.86035Z" fill="#566956" stroke-width="0"/><path d="M307.38126,114.12544v-.44043s1.54004-.76953,1.54004-1.54004c0-.27441-.21973-.49512-.5498-.49512-.38477,0-.66016.33008-.66016.33008l-.38477-.43945s.43945-.49512,1.04492-.49512c.66016,0,1.20996.5498,1.20996,1.09961,0,.88086-1.09961,1.375-1.09961,1.375v.05566h1.15527v.5498h-2.25586Z" fill="#566956" stroke-width="0"/><path d="M237.61075,44.16743h-1.32031v-7.48145h1.32031v7.48145ZM239.26115,40.20649l2.4751,3.96094h-1.43018l-2.42041-3.96094,2.2002-3.52051h1.43066l-2.25537,3.52051Z" fill="#566956" stroke-width="0"/><path d="M245.96525,36.46626c2.14502,0,3.90527,1.76074,3.90527,3.96094s-1.76025,3.95996-3.90527,3.95996c-2.14551,0-3.90576-1.75977-3.90576-3.95996s1.76025-3.96094,3.90576-3.96094ZM245.96525,37.67622c-1.32031,0-2.53027,1.20996-2.53027,2.75098,0,1.54004,1.20996,2.75,2.53027,2.75s2.53027-1.20996,2.53027-2.75c0-1.54102-1.20996-2.75098-2.53027-2.75098Z" fill="#566956" stroke-width="0"/><path d="M255.29874,41.14204l1.70508,3.02539h-1.43018l-1.54004-2.75h-1.43018v2.75h-1.32031v-7.48145h2.53027c1.65039,0,2.75049,1.10059,2.75049,2.36523,0,1.37598-1.26514,1.99219-1.26514,1.98047v.11035ZM253.81339,40.20649c.83643,0,1.37549-.5498,1.37549-1.15527,0-.60449-.55029-1.1543-1.37549-1.1543h-1.20996v2.30957h1.20996Z" fill="#566956" stroke-width="0"/><path d="M258.1713,36.68598h1.32031v7.48145h-1.32031v-7.48145Z" fill="#566956" stroke-width="0"/><path d="M263.5507,36.68598c2.09033,0,3.7959,1.70605,3.7959,3.74121s-1.70557,3.74023-3.7959,3.74023h-2.2002v-7.48145h2.2002ZM262.67081,37.89692v5.06055h.87988c1.26562,0,2.42041-1.15527,2.42041-2.53027,0-1.37598-1.15479-2.53027-2.42041-2.53027h-.87988Z" fill="#566956" stroke-width="0"/><path d="M272.16935,36.46626c2.14502,0,3.90527,1.76074,3.90527,3.96094s-1.76025,3.95996-3.90527,3.95996c-2.14551,0-3.90576-1.75977-3.90576-3.95996s1.76025-3.96094,3.90576-3.96094ZM272.16935,37.67622c-1.32031,0-2.53027,1.20996-2.53027,2.75098,0,1.54004,1.20996,2.75,2.53027,2.75s2.53027-1.20996,2.53027-2.75c0-1.54102-1.20996-2.75098-2.53027-2.75098Z" fill="#566956" stroke-width="0"/><path d="M281.50284,41.14204l1.70508,3.02539h-1.43018l-1.54004-2.75h-1.43018v2.75h-1.32031v-7.48145h2.53027c1.65039,0,2.75049,1.10059,2.75049,2.36523,0,1.37598-1.26514,1.99219-1.26514,1.98047v.11035ZM280.01749,40.20649c.83643,0,1.37549-.5498,1.37549-1.15527,0-.60449-.55029-1.1543-1.37549-1.1543h-1.20996v2.30957h1.20996Z" fill="#566956" stroke-width="0"/><path d="M245.51261,55.16743v-.71484h1.10059v-5.7207h-.05518l-1.26514.76953-.33008-.5498,2.31055-1.375h.05469v6.87598h1.1001v.71484h-2.91553Z" fill="#566956" stroke-width="0"/><path d="M249.67081,55.16743v-.71484h1.1001v-5.7207h-.05518l-1.26514.76953-.33008-.5498,2.31006-1.375h.05518v6.87598h1.1001v.71484h-2.91504Z" fill="#566956" stroke-width="0"/><path d="M254.57462,55.16743l-.60498.99023h-.27539l.44043-.87988s-.33008-.11035-.33008-.44043c0-.21973.21973-.44043.43994-.44043.21973,0,.43994.2207.43994.44043,0,.16504-.10986.33008-.10986.33008Z" fill="#566956" stroke-width="0"/><path d="M258.25529,51.48188h-1.1001v-.5498l2.25537-2.36523v-.05566h-3.19043v-.71484h4.3457v.49512l-2.31055,2.41992v.05566c1.43018,0,2.47559,1.04492,2.47559,2.31055,0,1.26465-1.04541,2.30957-2.47559,2.30957-1.76025,0-2.4751-1.54004-2.4751-1.54004l.60498-.38477s.5498,1.20996,1.87012,1.20996c1.04541,0,1.70557-.66016,1.70557-1.59473,0-.93555-.66016-1.5957-1.70557-1.5957Z" fill="#566956" stroke-width="0"/><path d="M266.94523,52.30708c0-.66016-.5498-1.10059-1.1001-1.10059-.60498,0-1.15527.44043-1.15527,1.21094v2.75h-.65967v-4.40039h.65967v.66016h.05518s.38525-.88086,1.20996-.88086c.93555,0,1.37549.99023,1.37549.99023h.05518s.43994-.99023,1.48486-.99023c.88037,0,1.65039.77051,1.65039,1.76074v2.86035h-.66016v-2.86035c0-.60547-.49512-1.10059-1.1001-1.10059-.66016,0-1.15527.49512-1.15527,1.10059v2.86035h-.66016v-2.86035Z" fill="#566956" stroke-width="0"/><path d="M271.56583,50.65669v-.44043s1.54004-.76953,1.54004-1.54004c0-.27441-.22021-.49512-.55029-.49512-.38477,0-.65967.33008-.65967.33008l-.38525-.43945s.43994-.49512,1.04492-.49512c.66016,0,1.21045.5498,1.21045,1.09961,0,.88086-1.1001,1.375-1.1001,1.375v.05566h1.15527v.5498h-2.25537Z" fill="#566956" stroke-width="0"/></g></svg>